<svg width="751" height="201" viewBox="0 0 751 201" fill="none" xmlns="http://www.w3.org/2000/svg">
<path d="M100.37 199.33C155.024 199.33 199.33 155.024 199.33 100.37C199.33 45.7159 155.024 1.41 100.37 1.41C45.7159 1.41 1.41003 45.7159 1.41003 100.37C1.41003 155.024 45.7159 199.33 100.37 199.33Z" fill="#0C0C4F"/>
<path d="M100.37 200.74C45.03 200.74 0 155.71 0 100.37C0 45.03 45.03 0 100.37 0C155.71 0 200.74 45.03 200.74 100.37C200.74 155.71 155.71 200.74 100.37 200.74ZM100.37 2.81C46.58 2.81 2.81 46.57 2.81 100.37C2.81 154.17 46.57 197.93 100.37 197.93C154.17 197.93 197.93 154.17 197.93 100.37C197.93 46.57 154.17 2.81 100.37 2.81Z" fill="#EC796B"/>
<path d="M99.1408 96.16L99.0708 83.02V82.62L108.961 100.44L122.121 94.58L124.211 93.65C124.211 93.65 124.211 93.65 124.221 93.65L122.121 94.58C122.791 94.23 123.491 93.91 124.221 93.65C125.721 93.09 127.331 92.72 129.011 92.57C137.841 91.79 145.161 97.42 145.711 105.14C145.981 108.91 143.601 112.36 143.601 112.36C140.721 108.09 135.201 105.5 129.011 106.05C127.331 106.2 125.721 106.57 124.221 107.13C124.221 107.13 124.217 107.13 124.211 107.13C123.491 107.4 122.791 107.71 122.121 108.06L108.971 113.92L99.1508 96.16H99.1408Z" fill="#EC796B"/>
<path d="M108.831 114.29L98.8508 96.23L98.7808 83.02L98.8108 81.54L109.081 100.06L121.991 94.31C122.671 93.95 123.361 93.64 124.051 93.39L124.091 93.35H124.161C125.701 92.77 127.331 92.41 128.981 92.26C133.581 91.85 138.071 93.19 141.291 95.94C144.071 98.31 145.741 101.57 145.991 105.1C146.261 108.92 143.931 112.36 143.831 112.5L143.731 112.64L143.431 112.61L143.351 112.5C140.421 108.16 134.931 105.79 129.021 106.31C127.421 106.45 125.851 106.8 124.361 107.36L124.301 107.38L108.821 114.27L108.831 114.29ZM99.4207 96.08L109.071 113.54L121.971 107.79C122.611 107.45 123.301 107.14 124.021 106.88L124.061 106.84H124.141C125.691 106.26 127.311 105.9 128.961 105.75C134.911 105.22 140.461 107.55 143.571 111.83C144.141 110.87 145.621 108.08 145.411 105.15C145.171 101.77 143.571 98.66 140.911 96.39C137.801 93.74 133.471 92.45 129.031 92.85C127.421 92.99 125.831 93.35 124.331 93.91L122.231 94.84L108.831 100.81L99.3607 83.73L99.4207 96.09V96.08Z" fill="#0C0C4F"/>
<path d="M168.441 103.39C168.441 103.39 169.541 114.47 169.561 116.35C170.031 127.54 163.821 140.59 153.791 146.46C149.751 148.82 136.701 154.08 136.701 154.08H136.691L111.271 165.09L99.0808 155V140.6L111.271 150.69L136.691 139.68H136.701C136.701 139.68 149.751 134.43 153.791 132.06C163.821 126.19 168.921 114.66 168.441 103.47" fill="#0C0C4F"/>
<path d="M111.211 165.43L111.071 165.32L98.7708 155.15V140L111.301 150.36L136.631 139.4C137.531 139.04 149.791 134.07 153.631 131.82C162.941 126.37 168.641 115.25 168.141 103.49C168.141 103.49 168.141 103.42 168.141 103.41L168.711 103.35C168.761 103.8 169.811 114.47 169.831 116.34C170.331 128.24 163.641 141.01 153.911 146.7C149.901 149.05 136.911 154.28 136.781 154.33L136.721 154.35L111.191 165.4L111.211 165.43ZM99.3508 154.87L111.301 164.76L136.631 153.8C137.531 153.44 149.791 148.47 153.631 146.22C163.181 140.63 169.761 128.08 169.261 116.37C169.261 115.33 168.901 111.39 168.601 108.14C167.641 118.32 162.171 127.5 153.921 132.33C149.911 134.68 136.921 139.91 136.791 139.96L136.731 139.98L111.201 151.03L111.061 150.92L99.3408 141.22V154.87H99.3508Z" fill="#EC796B"/>
<path d="M99.3608 170.24L89.5808 152.8V138.4L99.3608 155.84V170.24Z" fill="#F2F4F3"/>
<path d="M99.3608 170.53C99.2608 170.53 99.1608 170.48 99.1108 170.38L89.3308 152.94C89.3308 152.94 89.2908 152.85 89.2908 152.8V138.4C89.2908 138.27 89.3808 138.15 89.5108 138.12C89.6408 138.08 89.7708 138.14 89.8308 138.26L99.6108 155.7C99.6108 155.7 99.6508 155.79 99.6508 155.84V170.24C99.6508 170.37 99.5608 170.49 99.4308 170.52C99.4108 170.52 99.3808 170.52 99.3608 170.52V170.53ZM89.8708 152.73L99.0708 169.14V155.92L89.8708 139.51V152.73Z" fill="#0C0C4F"/>
<path d="M111.261 150.67L99.3508 155.81L89.5808 138.38L101.491 133.23L111.261 150.67Z" fill="#F2F4F3"/>
<path d="M99.2308 156.18L89.1808 138.25L101.611 132.87L111.671 150.82L99.2308 156.19V156.18ZM89.9908 138.52L99.4808 155.44L110.861 150.53L101.371 133.59L90.0008 138.51L89.9908 138.52Z" fill="#0C0C4F"/>
<path d="M99.3508 155.81L111.261 150.67V165.1L99.3508 170.24V155.81Z" fill="#F2F4F3"/>
<path d="M99.0708 170.68V155.62L111.551 150.23V165.28L99.0708 170.68ZM99.6508 156V169.8L110.981 164.9V151.1L99.6508 155.99V156Z" fill="#0C0C4F"/>
<path d="M136.701 139.69H136.691L111.271 150.7L101.491 133.26L130.101 120.9C130.101 120.9 138.581 117.17 141.021 115.23C143.771 113.04 145.891 108.95 145.701 105.08C145.301 97.35 137.831 91.72 129.001 92.51C127.321 92.66 125.711 93.03 124.211 93.59C123.481 93.86 122.781 94.17 122.111 94.52L124.211 93.59C124.211 93.59 124.211 93.59 124.201 93.59L122.111 94.52L108.951 100.38L99.1307 82.62C106.541 79.33 114.491 75.92 118.921 74.39C121.401 73.53 125.451 73.12 128.161 72.88C138.441 71.96 147.971 74.66 155.171 79.8C162.881 85.29 167.941 93.58 168.431 103.22C168.431 103.31 168.441 103.4 168.441 103.49C168.911 114.68 163.821 126.2 153.791 132.08C149.751 134.44 136.701 139.7 136.701 139.7H136.691" fill="#EC796B"/>
<path d="M111.151 151.06L101.091 133.11L130.001 120.63C130.081 120.59 138.471 116.9 140.851 115C143.721 112.71 145.601 108.64 145.421 105.09C145.251 101.78 143.721 98.71 141.111 96.44C137.971 93.72 133.571 92.39 129.041 92.79C127.431 92.93 125.851 93.29 124.351 93.85H124.331L108.851 100.75L98.7507 82.48L99.0407 82.35C108.421 78.18 115.091 75.41 118.851 74.11C121.261 73.28 125.091 72.86 128.161 72.58C138.151 71.69 147.811 74.16 155.371 79.55C163.521 85.35 168.271 93.75 168.751 103.19C168.751 103.3 168.761 103.39 168.761 103.48C169.271 115.44 163.461 126.76 153.961 132.32C149.951 134.67 136.961 139.9 136.831 139.95L136.771 139.97L111.171 151.06H111.151ZM101.911 133.39L111.401 150.33L136.651 139.4C137.551 139.04 149.811 134.07 153.651 131.82C162.961 126.37 168.661 115.25 168.161 103.49C168.161 103.4 168.161 103.33 168.161 103.25C167.691 93.96 163.021 85.72 155.021 80.02C147.581 74.71 138.051 72.28 128.201 73.15C125.161 73.42 121.371 73.84 119.031 74.65C115.321 75.93 108.771 78.66 99.5507 82.75L109.091 100L122.001 94.25C122.681 93.89 123.371 93.59 124.051 93.33L124.091 93.29H124.171C125.711 92.71 127.341 92.35 128.991 92.2C133.681 91.78 138.241 93.17 141.491 95.99C144.221 98.36 145.821 101.58 146.001 105.04C146.191 108.76 144.221 113.04 141.211 115.43C138.771 117.37 130.581 120.99 130.231 121.14L101.911 133.37V133.39Z" fill="#0C0C4F"/>
<path d="M109.031 113.89L99.0808 96.16V82.62L109.031 100.38V113.89Z" fill="#F2F4F3"/>
<path d="M109.031 114.17C108.931 114.17 108.831 114.12 108.781 114.02L98.8307 96.29C98.8307 96.29 98.7908 96.2 98.7908 96.15V82.61C98.7908 82.48 98.8808 82.36 99.0108 82.33C99.1408 82.29 99.2707 82.35 99.3307 82.47L109.281 100.24C109.281 100.24 109.321 100.33 109.321 100.38V113.88C109.321 114.01 109.231 114.13 109.101 114.16C109.081 114.16 109.051 114.16 109.031 114.16V114.17ZM99.3607 96.08L108.741 112.78V100.46L99.3607 83.72V96.08Z" fill="#0C0C4F"/>
<path d="M111.381 150.96L111.151 150.43L136.641 139.4C137.541 139.04 149.801 134.07 153.641 131.82C162.951 126.37 168.651 115.25 168.151 103.49L168.731 103.47C169.241 115.44 163.431 126.76 153.931 132.32C149.921 134.67 136.931 139.9 136.801 139.95L136.741 139.97L111.381 150.95V150.96Z" fill="#F2F4F3"/>
<path d="M63.3908 47.65H63.4008L88.8208 36.64L98.6008 54.08L69.9908 66.44C69.9908 66.44 61.5108 70.17 59.0708 72.11C56.3208 74.3 54.2008 78.39 54.3908 82.26C54.7908 89.99 62.2608 95.62 71.0908 94.83C72.7708 94.68 74.3808 94.31 75.8808 93.75C76.6108 93.48 77.3108 93.17 77.9808 92.82L75.8808 93.75C75.8808 93.75 75.8808 93.75 75.8908 93.75L77.9808 92.82L91.1408 86.96L100.961 104.72C93.5508 108.01 85.6008 111.42 81.1708 112.95C78.6908 113.81 74.6408 114.22 71.9308 114.46C61.6508 115.38 52.1208 112.68 44.9208 107.54C37.2108 102.05 32.1508 93.76 31.6608 84.12C31.6608 84.03 31.6508 83.94 31.6508 83.85C31.1808 72.66 36.2708 61.14 46.3008 55.26C50.3408 52.9 63.3908 47.64 63.3908 47.64H63.4008" fill="#EC796B"/>
<path d="M67.9709 114.93C59.4209 114.93 51.2909 112.45 44.7409 107.78C36.5909 101.98 31.8409 93.58 31.3609 84.14C31.3609 84.03 31.3509 83.94 31.3509 83.85C30.8409 71.89 36.6509 60.57 46.1509 55.01C50.1609 52.66 63.1509 47.43 63.2809 47.38L63.3409 47.36L88.9409 36.27L99.0009 54.22L70.0909 66.7C70.0109 66.74 61.6209 70.43 59.2409 72.33C56.3709 74.62 54.4909 78.69 54.6709 82.24C54.8409 85.55 56.3709 88.62 58.9809 90.89C62.1209 93.61 66.5209 94.95 71.0509 94.54C72.6609 94.4 74.2409 94.04 75.7509 93.48L77.8509 92.55L91.2509 86.58L101.351 104.85L101.061 104.98C91.6709 109.15 85.0009 111.92 81.2509 113.22C78.8509 114.05 75.0109 114.47 71.9409 114.75C70.6109 114.87 69.2809 114.93 67.9609 114.93H67.9709ZM63.4409 47.94C62.5409 48.3 50.2809 53.27 46.4409 55.52C37.1309 60.97 31.4309 72.09 31.9309 83.85C31.9309 83.94 31.9309 84.01 31.9309 84.09C32.4009 93.38 37.0709 101.62 45.0709 107.32C52.5109 112.63 62.0409 115.06 71.8909 114.19C74.9309 113.92 78.7209 113.5 81.0609 112.69C84.7609 111.41 91.3109 108.69 100.541 104.6L91.0009 87.35L78.0909 93.1C77.4109 93.46 76.7209 93.77 76.0309 94.02L75.9909 94.06H75.9209C74.3709 94.64 72.7509 95 71.1009 95.15C66.4109 95.57 61.8509 94.19 58.6009 91.36C55.8709 88.99 54.2709 85.77 54.0909 82.31C53.9009 78.59 55.8709 74.31 58.8809 71.92C61.3209 69.98 69.5109 66.37 69.8609 66.21L98.1809 53.98L88.6909 37.04L63.4409 47.97V47.94Z" fill="#0C0C4F"/>
<path d="M100.911 104.72C93.5009 108.01 85.5509 111.42 81.1209 112.95C78.6409 113.81 74.5909 114.22 71.8809 114.46C61.6009 115.38 52.0709 112.68 44.8709 107.54C37.1609 102.05 32.1009 93.76 31.6109 84.12C31.6109 84.12 25.9609 120.17 60.7009 128.26C60.7009 128.26 77.0108 133.74 100.921 119.54V104.7L100.911 104.72Z" fill="#EC796B"/>
<path d="M69.2408 129.6C63.8208 129.6 60.7608 128.59 60.6108 128.54C42.5608 124.34 35.5508 112.46 32.8608 103.24C29.9508 93.27 31.3208 84.17 31.3308 84.08L31.7608 81.33L31.9008 84.11C32.3708 93.37 37.0408 101.61 45.0408 107.31C52.4808 112.62 62.0108 115.05 71.8608 114.18C74.9008 113.91 78.6908 113.49 81.0308 112.68C84.7708 111.39 91.4208 108.62 100.801 104.46L101.211 104.28V119.72L101.071 119.8C88.6708 127.16 78.3508 129.15 71.8708 129.52C70.9408 129.57 70.0708 129.6 69.2508 129.6H69.2408ZM31.6308 87.17C31.4508 90.63 31.5308 96.69 33.4108 103.1C36.0608 112.17 42.9608 123.84 60.7608 127.99C60.9508 128.05 77.2008 133.24 100.621 119.39V105.16C91.4408 109.23 84.9108 111.94 81.2108 113.22C78.8108 114.05 74.9708 114.47 71.9008 114.75C61.9108 115.64 52.2508 113.16 44.6908 107.78C37.4308 102.61 32.8608 95.37 31.6208 87.17H31.6308Z" fill="#0C0C4F"/>
<path d="M98.5908 54.08V69.26L64.6408 83.94C64.6408 83.94 58.5309 86.27 57.4709 89.79C57.4709 89.79 48.6208 79.51 60.8508 70.94C63.8308 68.85 98.5908 54.09 98.5908 54.09V54.08Z" fill="#0C0C4F"/>
<path d="M57.5909 90.37L57.2509 89.97C57.1009 89.79 53.4909 85.54 54.1709 80.14C54.6109 76.6 56.8109 73.42 60.6909 70.7C63.6609 68.62 97.0609 54.42 98.4809 53.82L98.8809 53.65V69.45L98.7109 69.53L64.7609 84.21C64.6909 84.24 58.7609 86.54 57.7509 89.87L57.6009 90.37H57.5909ZM98.3009 54.52C94.4209 56.17 63.7609 69.25 61.0109 71.17C57.2709 73.79 55.1609 76.83 54.7309 80.21C54.2009 84.45 56.5109 88.04 57.3709 89.2C58.8309 85.88 64.2909 83.76 64.5309 83.67L98.2909 69.07V54.52H98.3009Z" fill="#EC796B"/>
<path d="M110.501 48.94L98.5909 54.08L88.8209 36.65L100.721 31.5L110.501 48.94Z" fill="#F2F4F3"/>
<path d="M98.4709 54.45L88.4209 36.52L100.851 31.14L110.911 49.09L98.4709 54.46V54.45ZM89.2309 36.79L98.7209 53.71L110.101 48.8L100.611 31.86L89.2409 36.78L89.2309 36.79Z" fill="#0C0C4F"/>
<path d="M98.5908 54.08L110.501 48.94V64.11L98.5908 69.26V54.08Z" fill="#F2F4F3"/>
<path d="M98.3008 69.7V53.89L110.781 48.5V64.3L98.3008 69.7ZM98.8808 54.27V68.82L110.211 63.92V49.37L98.8808 54.26V54.27Z" fill="#0C0C4F"/>
<path d="M57.2509 89.98C57.1009 89.8 53.4909 85.55 54.1709 80.15C54.6109 76.61 56.8109 73.43 60.6909 70.71C63.6609 68.63 97.0609 54.43 98.4809 53.83L98.7109 54.36C98.3609 54.51 63.9409 69.14 61.0209 71.18C57.2809 73.8 55.1709 76.84 54.7409 80.22C54.1009 85.37 57.6509 89.57 57.6909 89.61L57.2509 89.99V89.98Z" fill="#F2F4F3"/>
<path d="M131.851 24.68L122.031 29.37L126.081 31.28L115.101 40.56L132.641 31.89L128.221 30.82L131.851 24.68Z" fill="#F2F4F3"/>
<path d="M113.121 41.86L125.551 31.34L121.361 29.36L132.581 24L128.661 30.63L133.481 31.8L113.111 41.86H113.121ZM122.711 29.37L126.611 31.21L117.101 39.26L131.811 31.99L127.781 31.01L131.131 25.34L122.711 29.37Z" fill="#EC796B"/>
<path d="M67.4008 175.14L77.2208 170.45L73.1808 168.54L84.1508 159.26L66.6108 167.92L71.0308 168.99L67.4008 175.14Z" fill="#EC796B"/>
<path d="M66.6709 175.81L70.5909 169.18L65.7709 168.01L86.1409 157.95L73.7109 168.47L77.9009 170.45L66.6809 175.81H66.6709ZM67.4509 167.83L71.4809 168.81L68.1309 174.48L76.5509 170.45L72.6509 168.61L82.1609 160.56L67.4509 167.83Z" fill="#F2F4F3"/>
<path d="M241.244 143.37V43.842H294.704V55.194H253.652V83.046H293.516V94.398H253.652V132.018H294.704V143.37H241.244ZM335.424 134.922C348.36 134.922 355.488 124.626 355.488 112.482C355.488 100.47 348.228 90.306 335.424 90.306C323.148 90.306 315.888 100.998 315.888 112.482C315.888 124.098 322.884 134.922 335.424 134.922ZM366.708 81.594V143.37H354.828V133.734H354.564C349.812 140.73 342.42 145.482 333.576 145.482C314.7 145.482 304.008 129.774 304.008 112.086C304.008 95.19 315.228 79.746 333.18 79.746C342.288 79.746 349.68 84.498 354.564 91.89H354.828V81.594H366.708ZM416.56 90.57L406.924 95.718C405.472 92.682 402.436 90.306 399.004 90.306C395.704 90.306 392.536 92.946 392.536 96.378C392.536 101.79 399.664 104.166 406.924 107.466C414.184 110.766 421.18 115.254 421.18 125.022C421.18 136.77 411.412 145.482 399.928 145.482C390.952 145.482 381.844 140.334 378.544 131.622L388.708 127.002C391.216 131.622 394.252 134.922 399.928 134.922C404.944 134.922 409.3 131.49 409.3 126.21C409.3 122.91 407.716 121.326 404.944 119.478L393.328 113.274C386.464 109.578 381.448 106.146 381.448 97.698C381.448 87.666 389.632 79.746 399.664 79.746C407.188 79.746 413.26 83.838 416.56 90.57ZM451.116 132.81L422.868 81.594H436.728L457.584 120.798L476.988 81.594H490.32L440.292 178.746H426.828L451.116 132.81ZM510.433 43.842V132.018H540.661V143.37H498.025V43.842H510.433ZM601.746 114.462H554.622C554.754 125.022 561.882 134.922 573.234 134.922C582.342 134.922 587.226 130.302 591.714 122.91L601.746 128.586C595.938 139.278 585.114 145.482 573.102 145.482C554.226 145.482 542.742 131.226 542.742 113.01C542.742 94.002 552.906 79.746 572.838 79.746C592.506 79.746 601.746 94.266 601.746 112.614V114.462ZM555.282 105.486H589.866C588.414 96.246 582.342 90.042 572.838 90.042C563.598 90.042 556.734 96.642 555.282 105.486ZM638.611 134.922C651.547 134.922 658.675 124.626 658.675 112.482C658.675 100.47 651.415 90.306 638.611 90.306C626.335 90.306 619.075 100.998 619.075 112.482C619.075 124.098 626.071 134.922 638.611 134.922ZM669.895 81.594V143.37H658.015V133.734H657.751C652.999 140.73 645.607 145.482 636.763 145.482C617.887 145.482 607.195 129.774 607.195 112.086C607.195 95.19 618.415 79.746 636.367 79.746C645.475 79.746 652.867 84.498 657.751 91.89H658.015V81.594H669.895ZM715.127 134.922C728.063 134.922 735.191 124.626 735.191 112.482C735.191 100.47 727.931 90.306 715.127 90.306C702.851 90.306 695.591 100.998 695.591 112.482C695.591 124.098 702.587 134.922 715.127 134.922ZM696.251 81.594V91.89H696.515C701.399 84.498 708.791 79.746 718.031 79.746C735.851 79.746 747.071 95.19 747.071 112.086C747.071 129.774 736.511 145.482 717.503 145.482C708.791 145.482 701.267 140.73 696.515 133.734H696.251V178.746H684.371V81.594H696.251Z" fill="#0C0C4F"/>
</svg>
