<svg width="910" height="244" viewBox="0 0 910 244" fill="none" xmlns="http://www.w3.org/2000/svg">
<path d="M121.662 241.615C187.911 241.615 241.615 187.91 241.615 121.662C241.615 55.414 187.911 1.70911 121.662 1.70911C55.414 1.70911 1.70917 55.414 1.70917 121.662C1.70917 187.91 55.414 241.615 121.662 241.615Z" fill="#0C0C4F"/>
<path d="M121.662 243.324C54.5825 243.324 0 188.742 0 121.662C0 54.5826 54.5825 0 121.662 0C188.742 0 243.324 54.5826 243.324 121.662C243.324 188.742 188.742 243.324 121.662 243.324ZM121.662 3.4061C56.4613 3.4061 3.4061 56.4492 3.4061 121.662C3.4061 186.875 56.4492 239.918 121.662 239.918C186.875 239.918 239.918 186.875 239.918 121.662C239.918 56.4492 186.875 3.4061 121.662 3.4061Z" fill="#EC796B"/>
<path d="M120.172 116.559L120.087 100.632V100.147L132.075 121.747L148.027 114.644L150.561 113.517C150.561 113.517 150.561 113.517 150.573 113.517L148.027 114.644C148.839 114.22 149.688 113.832 150.573 113.517C152.391 112.838 154.342 112.389 156.379 112.208C167.082 111.262 175.955 118.086 176.622 127.444C176.949 132.014 174.064 136.196 174.064 136.196C170.573 131.02 163.882 127.881 156.379 128.547C154.342 128.729 152.391 129.178 150.573 129.856C150.573 129.856 150.569 129.856 150.561 129.856C149.688 130.184 148.839 130.559 148.027 130.984L132.088 138.087L120.184 116.559H120.172Z" fill="#EC796B"/>
<path d="M131.918 138.535L119.821 116.644L119.736 100.632L119.772 98.8378L132.221 121.287L147.87 114.317C148.694 113.88 149.53 113.505 150.367 113.202L150.415 113.153H150.5C152.367 112.45 154.342 112.014 156.342 111.832C161.918 111.335 167.361 112.959 171.264 116.293C174.634 119.165 176.658 123.117 176.961 127.396C177.288 132.026 174.464 136.196 174.343 136.366L174.221 136.535L173.858 136.499L173.761 136.366C170.209 131.105 163.555 128.232 156.391 128.862C154.451 129.032 152.548 129.456 150.742 130.135L150.67 130.159L131.906 138.511L131.918 138.535ZM120.512 116.462L132.209 137.626L147.845 130.656C148.621 130.244 149.457 129.868 150.33 129.553L150.379 129.505H150.476C152.354 128.802 154.318 128.365 156.318 128.184C163.53 127.541 170.258 130.365 174.028 135.553C174.718 134.39 176.512 131.008 176.258 127.456C175.967 123.359 174.028 119.59 170.803 116.838C167.033 113.626 161.785 112.062 156.403 112.547C154.451 112.717 152.524 113.153 150.706 113.832L148.16 114.959L131.918 122.196L120.439 101.492L120.512 116.474V116.462Z" fill="#0C0C4F"/>
<path d="M204.173 125.323C204.173 125.323 205.507 138.753 205.531 141.032C206.101 154.596 198.573 170.414 186.416 177.53C181.519 180.39 165.7 186.766 165.7 186.766H165.688L134.876 200.112L120.1 187.881V170.426L134.876 182.657L165.688 169.311H165.7C165.7 169.311 181.519 162.948 186.416 160.075C198.573 152.96 204.755 138.984 204.173 125.42" fill="#0C0C4F"/>
<path d="M134.803 200.524L134.633 200.391L119.724 188.063V169.699L134.912 182.257L165.615 168.972C166.706 168.536 181.567 162.511 186.222 159.784C197.507 153.178 204.416 139.699 203.81 125.444C203.81 125.444 203.81 125.359 203.81 125.347L204.501 125.274C204.561 125.82 205.834 138.753 205.858 141.02C206.464 155.444 198.355 170.923 186.561 177.821C181.7 180.669 165.955 187.009 165.797 187.069L165.724 187.093L134.779 200.488L134.803 200.524ZM120.427 187.724L134.912 199.712L165.615 186.427C166.706 185.99 181.567 179.966 186.222 177.239C197.798 170.463 205.773 155.251 205.167 141.056C205.167 139.796 204.731 135.02 204.367 131.081C203.204 143.42 196.573 154.548 186.573 160.402C181.712 163.251 165.967 169.59 165.809 169.651L165.736 169.675L134.791 183.069L134.621 182.936L120.415 171.178V187.724H120.427Z" fill="#EC796B"/>
<path d="M120.439 206.354L108.584 185.215V167.76L120.439 188.9V206.354Z" fill="#F2F4F3"/>
<path d="M120.439 206.706C120.318 206.706 120.196 206.645 120.136 206.524L108.281 185.384C108.281 185.384 108.233 185.275 108.233 185.215V167.76C108.233 167.602 108.342 167.457 108.499 167.42C108.657 167.372 108.815 167.445 108.887 167.59L120.742 188.73C120.742 188.73 120.79 188.839 120.79 188.9V206.354C120.79 206.512 120.681 206.657 120.524 206.694C120.5 206.694 120.463 206.694 120.439 206.694V206.706ZM108.936 185.13L120.087 205.021V188.997L108.936 169.105V185.13Z" fill="#0C0C4F"/>
<path d="M134.863 182.633L120.427 188.863L108.584 167.736L123.021 161.493L134.863 182.633Z" fill="#F2F4F3"/>
<path d="M120.281 189.312L108.099 167.578L123.166 161.057L135.36 182.815L120.281 189.324V189.312ZM109.081 167.905L120.584 188.415L134.379 182.463L122.875 161.929L109.093 167.893L109.081 167.905Z" fill="#0C0C4F"/>
<path d="M120.427 188.863L134.863 182.633V200.124L120.427 206.354V188.863Z" fill="#F2F4F3"/>
<path d="M120.087 206.888V188.633L135.215 182.099V200.342L120.087 206.888ZM120.79 189.093V205.821L134.524 199.881V183.154L120.79 189.081V189.093Z" fill="#0C0C4F"/>
<path d="M165.7 169.323H165.688L134.875 182.669L123.021 161.529L157.7 146.547C157.7 146.547 167.979 142.026 170.937 139.675C174.27 137.02 176.84 132.062 176.609 127.371C176.124 118.002 167.07 111.177 156.367 112.135C154.33 112.317 152.379 112.765 150.56 113.444C149.676 113.771 148.827 114.147 148.015 114.571L150.56 113.444C150.56 113.444 150.56 113.444 150.548 113.444L148.015 114.571L132.063 121.674L120.16 100.147C129.142 96.1589 138.778 92.0255 144.148 90.1709C147.154 89.1285 152.064 88.6315 155.348 88.3406C167.809 87.2254 179.361 90.4982 188.088 96.7286C197.434 103.383 203.567 113.432 204.161 125.117C204.161 125.226 204.173 125.335 204.173 125.444C204.743 139.008 198.573 152.972 186.416 160.099C181.518 162.96 165.7 169.336 165.7 169.336H165.688" fill="#EC796B"/>
<path d="M134.73 183.105L122.536 161.348L157.579 146.22C157.676 146.172 167.846 141.699 170.73 139.396C174.209 136.62 176.488 131.687 176.27 127.384C176.064 123.371 174.209 119.65 171.046 116.899C167.24 113.602 161.906 111.989 156.415 112.474C154.464 112.644 152.548 113.08 150.73 113.759H150.706L131.942 122.123L119.699 99.9771L120.051 99.8195C131.421 94.7649 139.506 91.4073 144.063 89.8315C146.985 88.8254 151.627 88.3163 155.348 87.9769C167.458 86.8981 179.167 89.8921 188.331 96.4255C198.21 103.456 203.967 113.638 204.549 125.08C204.549 125.214 204.561 125.323 204.561 125.432C205.179 139.929 198.137 153.651 186.622 160.39C181.761 163.239 166.015 169.578 165.858 169.639L165.785 169.663L134.754 183.105H134.73ZM123.53 161.687L135.033 182.221L165.639 168.972C166.73 168.536 181.591 162.511 186.246 159.784C197.531 153.178 204.44 139.699 203.834 125.444C203.834 125.335 203.834 125.25 203.834 125.153C203.264 113.892 197.604 103.904 187.906 96.9952C178.888 90.5588 167.336 87.6133 155.397 88.6679C151.712 88.9951 147.118 89.5042 144.282 90.4861C139.785 92.0376 131.845 95.3467 120.669 100.304L132.233 121.214L147.882 114.244C148.706 113.808 149.542 113.444 150.367 113.129L150.415 113.08H150.512C152.379 112.377 154.354 111.941 156.355 111.759C162.039 111.25 167.567 112.935 171.506 116.353C174.815 119.226 176.755 123.129 176.973 127.323C177.203 131.832 174.815 137.02 171.167 139.917C168.209 142.269 158.282 146.656 157.858 146.838L123.53 161.663V161.687Z" fill="#0C0C4F"/>
<path d="M132.16 138.05L120.1 116.559V100.147L132.16 121.674V138.05Z" fill="#F2F4F3"/>
<path d="M132.16 138.39C132.039 138.39 131.918 138.329 131.857 138.208L119.796 116.717C119.796 116.717 119.748 116.608 119.748 116.547V100.135C119.748 99.977 119.857 99.8316 120.015 99.7952C120.172 99.7467 120.33 99.8195 120.403 99.9649L132.463 121.505C132.463 121.505 132.512 121.614 132.512 121.674V138.038C132.512 138.196 132.403 138.341 132.245 138.378C132.221 138.378 132.185 138.378 132.16 138.378V138.39ZM120.439 116.462L131.809 136.705V121.771L120.439 101.48V116.462Z" fill="#0C0C4F"/>
<path d="M135.009 182.984L134.73 182.342L165.627 168.972C166.718 168.536 181.579 162.511 186.234 159.784C197.519 153.178 204.428 139.699 203.822 125.444L204.525 125.42C205.143 139.929 198.101 153.65 186.585 160.39C181.725 163.238 165.979 169.578 165.821 169.639L165.749 169.663L135.009 182.972V182.984Z" fill="#F2F4F3"/>
<path d="M76.8385 57.7584H76.8506L107.663 44.4127L119.518 65.5524L84.8386 80.5344C84.8386 80.5344 74.5596 85.0557 71.602 87.4072C68.2686 90.0618 65.6989 95.0195 65.9292 99.7105C66.4141 109.08 75.4687 115.905 86.1719 114.947C88.2083 114.765 90.1598 114.317 91.978 113.638C92.8629 113.311 93.7114 112.935 94.5235 112.511L91.978 113.638C91.978 113.638 91.9781 113.638 91.9902 113.638L94.5235 112.511L110.475 105.407L122.378 126.935C113.397 130.923 103.76 135.056 98.3903 136.911C95.3842 137.953 90.475 138.45 87.1901 138.741C74.7293 139.856 63.1777 136.584 54.4503 130.353C45.1047 123.699 38.9713 113.65 38.3773 101.965C38.3773 101.856 38.3652 101.747 38.3652 101.638C37.7955 88.0739 43.9653 74.1101 56.123 66.9827C61.0201 64.1221 76.8385 57.7462 76.8385 57.7462H76.8506" fill="#EC796B"/>
<path d="M82.3901 139.311C72.0264 139.311 62.1717 136.305 54.2322 130.644C44.3532 123.614 38.5956 113.432 38.0138 101.989C38.0138 101.856 38.0016 101.747 38.0016 101.638C37.3835 87.1406 44.426 73.4192 55.9413 66.6797C60.802 63.8312 76.5476 57.4917 76.7052 57.4311L76.7779 57.4068L107.809 43.9642L120.003 65.7221L84.9599 80.8496C84.8629 80.8981 74.693 85.3708 71.8082 87.6739C68.3293 90.4497 66.0505 95.3831 66.2687 99.6862C66.4748 103.698 68.3293 107.42 71.493 110.171C75.2991 113.468 80.6325 115.092 86.1235 114.596C88.075 114.426 89.9902 113.989 91.8206 113.311L94.366 112.183L110.609 104.947L122.851 127.093L122.5 127.25C111.118 132.305 103.033 135.662 98.4873 137.238C95.5782 138.244 90.9236 138.753 87.2023 139.093C85.5902 139.238 83.978 139.311 82.378 139.311H82.3901ZM76.8991 58.1099C75.8082 58.5463 60.9474 64.5706 56.2928 67.2979C45.0078 73.904 38.0986 87.383 38.7047 101.638C38.7047 101.747 38.7047 101.832 38.7047 101.929C39.2744 113.189 44.9351 123.177 54.6322 130.087C63.6505 136.523 75.2021 139.469 87.1417 138.414C90.8266 138.087 95.4206 137.578 98.257 136.596C102.742 135.044 110.681 131.747 121.869 126.79L110.306 105.88L94.657 112.85C93.8327 113.286 92.9963 113.662 92.16 113.965L92.1115 114.014H92.0266C90.1478 114.717 88.1841 115.153 86.1841 115.335C80.4992 115.844 74.9718 114.171 71.0324 110.741C67.7233 107.868 65.7838 103.965 65.5657 99.7711C65.3354 95.2619 67.7233 90.0739 71.3718 87.1769C74.3294 84.8254 84.2568 80.4496 84.6811 80.2556L119.009 65.4312L107.506 44.8976L76.8991 58.1463V58.1099Z" fill="#0C0C4F"/>
<path d="M122.318 126.935C113.336 130.923 103.7 135.056 98.3297 136.911C95.3236 137.953 90.4145 138.45 87.1296 138.741C74.6688 139.856 63.1171 136.584 54.3898 130.353C45.0442 123.699 38.9108 113.65 38.3168 101.965C38.3168 101.965 31.4682 145.663 73.5779 155.469C73.5779 155.469 93.3478 162.111 122.33 144.899V126.911L122.318 126.935Z" fill="#EC796B"/>
<path d="M83.9295 157.093C77.3597 157.093 73.6506 155.869 73.4688 155.808C51.5897 150.717 43.0926 136.317 39.8319 125.141C36.3046 113.056 37.9653 102.026 37.9774 101.917L38.4986 98.5833L38.6683 101.953C39.238 113.177 44.8987 123.165 54.5958 130.075C63.6141 136.511 75.1657 139.457 87.1053 138.402C90.7902 138.075 95.3842 137.566 98.2206 136.584C102.754 135.02 110.815 131.662 122.185 126.62L122.682 126.402V145.117L122.512 145.214C107.481 154.136 94.9721 156.548 87.1174 156.996C85.9901 157.057 84.9356 157.093 83.9416 157.093H83.9295ZM38.341 105.662C38.1228 109.856 38.2198 117.202 40.4986 124.972C43.7108 135.966 52.0745 150.111 73.6506 155.142C73.8809 155.214 93.5781 161.505 121.966 144.717V127.469C110.839 132.402 102.924 135.687 98.4388 137.238C95.5296 138.244 90.875 138.753 87.1538 139.093C75.0445 140.172 63.3353 137.166 54.1715 130.644C45.3714 124.378 39.8319 115.602 38.3289 105.662H38.341Z" fill="#0C0C4F"/>
<path d="M119.506 65.5525V83.9528L78.3537 101.747C78.3537 101.747 70.9476 104.571 69.6627 108.838C69.6627 108.838 58.9353 96.3772 73.7597 85.9891C77.3719 83.4558 119.506 65.5646 119.506 65.5646V65.5525Z" fill="#0C0C4F"/>
<path d="M69.8081 109.541L69.396 109.056C69.2142 108.838 64.8384 103.686 65.6626 97.1408C66.196 92.8498 68.8627 88.9952 73.5658 85.6982C77.1658 83.1769 117.651 65.9646 119.372 65.2373L119.857 65.0312V84.183L119.651 84.28L78.4992 102.074C78.4143 102.111 71.2264 104.898 70.0021 108.935L69.8203 109.541H69.8081ZM119.154 66.0858C114.451 68.0858 77.287 83.9406 73.9537 86.2679C69.4203 89.4437 66.8627 93.1286 66.3414 97.2256C65.699 102.365 68.499 106.717 69.5415 108.123C71.3112 104.098 77.9295 101.529 78.2204 101.42L119.142 83.7224V66.0858H119.154Z" fill="#EC796B"/>
<path d="M133.942 59.3221L119.506 65.5524L107.663 44.4249L122.088 38.1824L133.942 59.3221Z" fill="#F2F4F3"/>
<path d="M119.36 66.0009L107.178 44.2673L122.245 37.746L134.439 59.5039L119.36 66.013V66.0009ZM108.16 44.5946L119.663 65.1039L133.457 59.1523L121.954 38.6187L108.172 44.5824L108.16 44.5946Z" fill="#0C0C4F"/>
<path d="M119.506 65.5523L133.942 59.3219V77.71L119.506 83.9525V65.5523Z" fill="#F2F4F3"/>
<path d="M119.154 84.486V65.3221L134.282 58.7887V77.9405L119.154 84.486ZM119.857 65.7827V83.4193L133.591 77.4798V59.8432L119.857 65.7706V65.7827Z" fill="#0C0C4F"/>
<path d="M69.396 109.068C69.2142 108.85 64.8384 103.699 65.6626 97.153C66.196 92.862 68.8627 89.0074 73.5658 85.7104C77.1658 83.1891 117.651 65.9768 119.372 65.2495L119.651 65.8919C119.227 66.0738 77.5052 83.8073 73.9657 86.2801C69.4323 89.4559 66.8747 93.1408 66.3535 97.2378C65.5778 103.48 69.8809 108.571 69.9293 108.62L69.396 109.08V109.068Z" fill="#F2F4F3"/>
<path d="M159.821 29.9155L147.918 35.6005L152.827 37.9156L139.518 49.1643L160.779 38.655L155.421 37.3581L159.821 29.9155Z" fill="#F2F4F3"/>
<path d="M137.118 50.7401L152.185 37.9884L147.106 35.5883L160.706 29.0913L155.955 37.1278L161.797 38.546L137.106 50.7401H137.118ZM148.742 35.6005L153.47 37.8308L141.942 47.5885L159.773 38.7763L154.888 37.5884L158.949 30.7156L148.742 35.6005Z" fill="#EC796B"/>
<path d="M81.699 212.294L93.6022 206.609L88.7052 204.294L102.002 193.045L80.7415 203.542L86.0991 204.839L81.699 212.294Z" fill="#EC796B"/>
<path d="M80.8143 213.106L85.5659 205.069L79.7234 203.651L104.415 191.457L89.3477 204.209L94.4266 206.609L80.8264 213.106H80.8143ZM81.7598 203.433L86.6447 204.621L82.584 211.494L92.7902 206.609L88.0629 204.378L99.5903 194.621L81.7598 203.433Z" fill="#F2F4F3"/>
<path d="M292.421 173.662V53.0206H357.222V66.7808H307.461V100.541H355.782V114.301H307.461V159.902H357.222V173.662H292.421ZM406.58 163.422C422.26 163.422 430.9 150.942 430.9 136.222C430.9 121.662 422.1 109.341 406.58 109.341C391.7 109.341 382.9 122.302 382.9 136.222C382.9 150.302 391.38 163.422 406.58 163.422ZM444.5 98.7812V173.662H430.1V161.982H429.78C424.02 170.462 415.06 176.222 404.34 176.222C381.46 176.222 368.499 157.182 368.499 135.742C368.499 115.261 382.1 96.5412 403.86 96.5412C414.9 96.5412 423.86 102.301 429.78 111.261H430.1V98.7812H444.5ZM504.927 109.661L493.247 115.901C491.487 112.221 487.807 109.341 483.647 109.341C479.647 109.341 475.807 112.541 475.807 116.701C475.807 123.262 484.447 126.142 493.247 130.142C502.047 134.142 510.528 139.582 510.528 151.422C510.528 165.662 498.687 176.222 484.767 176.222C473.887 176.222 462.847 169.982 458.847 159.422L471.167 153.822C474.207 159.422 477.887 163.422 484.767 163.422C490.847 163.422 496.127 159.262 496.127 152.862C496.127 148.862 494.207 146.942 490.847 144.702L476.767 137.182C468.447 132.702 462.367 128.542 462.367 118.301C462.367 106.141 472.287 96.5412 484.447 96.5412C493.567 96.5412 500.927 101.501 504.927 109.661ZM546.814 160.862L512.574 98.7812H529.374L554.654 146.302L578.175 98.7812H594.335L533.694 216.543H517.374L546.814 160.862ZM618.715 53.0206V159.902H655.356V173.662H603.675V53.0206H618.715ZM729.399 138.622H672.278C672.438 151.422 681.079 163.422 694.839 163.422C705.879 163.422 711.799 157.822 717.239 148.862L729.399 155.742C722.359 168.702 709.239 176.222 694.679 176.222C671.798 176.222 657.878 158.942 657.878 136.862C657.878 113.821 670.198 96.5412 694.359 96.5412C718.199 96.5412 729.399 114.141 729.399 136.382V138.622ZM673.078 127.742H714.999C713.239 116.541 705.879 109.021 694.359 109.021C683.159 109.021 674.838 117.021 673.078 127.742ZM774.085 163.422C789.765 163.422 798.405 150.942 798.405 136.222C798.405 121.662 789.605 109.341 774.085 109.341C759.205 109.341 750.404 122.302 750.404 136.222C750.404 150.302 758.885 163.422 774.085 163.422ZM812.005 98.7812V173.662H797.605V161.982H797.285C791.525 170.462 782.565 176.222 771.845 176.222C748.964 176.222 736.004 157.182 736.004 135.742C736.004 115.261 749.604 96.5412 771.365 96.5412C782.405 96.5412 791.365 102.301 797.285 111.261H797.605V98.7812H812.005ZM866.832 163.422C882.512 163.422 891.153 150.942 891.153 136.222C891.153 121.662 882.352 109.341 866.832 109.341C851.952 109.341 843.152 122.302 843.152 136.222C843.152 150.302 851.632 163.422 866.832 163.422ZM843.952 98.7812V111.261H844.272C850.192 102.301 859.152 96.5412 870.352 96.5412C891.953 96.5412 905.553 115.261 905.553 135.742C905.553 157.182 892.753 176.222 869.712 176.222C859.152 176.222 850.032 170.462 844.272 161.982H843.952V216.543H829.552V98.7812H843.952Z" fill="#FAFAFA"/>
</svg>
