<svg width="106" height="45" viewBox="0 0 106 45" fill="none" xmlns="http://www.w3.org/2000/svg">
<path d="M25.0761 27.3109V35.8047H20.5176V18.2923H24.7154V21.6702C25.9944 19.4401 28.7163 18.0955 31.5367 18.0955V22.818C27.6669 22.5228 25.0761 23.4411 25.0761 27.3109ZM41.516 36.1326C36.4328 36.1326 32.6286 32.1317 32.6286 27.0485C32.6286 21.9325 36.4328 17.9644 41.516 17.9644C46.5992 17.9644 50.4034 21.9325 50.4034 27.0485C50.4034 32.1317 46.5992 36.1326 41.516 36.1326ZM41.516 32.0989C43.7788 32.0989 45.7137 30.2952 45.7137 27.0485C45.7137 23.8018 43.7788 22.0309 41.516 22.0309C39.2532 22.0309 37.3183 23.8018 37.3183 27.0485C37.3183 30.2952 39.2532 32.0989 41.516 32.0989ZM68.4781 18.2923L62.0504 35.8047H57.0656L50.605 18.2923H55.5242L59.6891 30.6231L63.8869 18.2923H68.4781ZM77.4782 36.0998C72.2311 36.0998 68.722 32.4596 68.722 26.9829C68.722 21.7685 72.3623 17.9644 77.4126 17.9644C82.955 17.9644 86.628 22.4572 85.8081 28.1635H73.3789C73.674 31.0167 75.0514 32.5908 77.3798 32.5908C79.3803 32.5908 80.7249 31.607 81.2496 29.8688H85.7753C84.7915 33.837 81.7415 36.0998 77.4782 36.0998ZM77.3143 21.3094C75.1826 21.3094 73.838 22.6868 73.4445 25.2776H80.9873C80.8561 22.8508 79.4787 21.3094 77.3143 21.3094ZM103.652 30.1968C103.652 33.8698 100.864 36.1326 95.8794 36.1326C90.8946 36.1326 88.1071 33.7386 87.7463 29.836H92.108C92.1408 31.6398 93.6822 32.7876 95.945 32.7876C97.7159 32.7876 99.0605 32.2301 99.0605 30.9839C99.0605 29.8688 98.339 29.4097 96.6665 29.0818L93.5182 28.4915C90.3699 27.934 88.4678 26.1958 88.4678 23.4739C88.4678 20.2272 91.2554 17.9644 95.617 17.9644C100.012 17.9644 103.029 20.2928 103.357 24.0642H98.9949C98.8309 22.3589 97.5519 21.3094 95.617 21.3094C93.9445 21.3094 92.8295 21.9325 92.8295 23.0475C92.8295 24.097 93.551 24.5233 95.1251 24.8185L98.503 25.4416C101.914 26.0975 103.652 27.6716 103.652 30.1968Z" fill="#9069F0"/>
<path d="M13.937 34.2532C13.937 34.9777 13.3497 35.565 12.6252 35.565H9.03444C8.30996 35.565 7.72266 34.9777 7.72266 34.2532V18.1617C7.72266 17.791 7.87948 17.4377 8.15435 17.189L11.7451 13.9402C12.5885 13.1771 13.937 13.7756 13.937 14.9129V34.2532Z" fill="#9069F0"/>
<path d="M0 14.7397V11.6243C0 10.8998 0.587307 10.3125 1.31179 10.3125H19.2383C19.9628 10.3125 20.5501 10.8998 20.5501 11.6243V14.6725C20.5501 15.397 19.9628 15.9843 19.2383 15.9843H18.2606C17.9354 15.9843 17.6217 15.8635 17.3805 15.6453L13.4431 12.0828C12.9492 11.636 12.1989 11.6302 11.6981 12.0693L7.59844 15.6644C7.36303 15.8709 7.06154 15.9863 6.74846 15.9898L1.32669 16.0515C0.596433 16.0598 0 15.4701 0 14.7397Z" fill="#9069F0"/>
</svg>
