<svg width="292" height="69" viewBox="0 0 292 69" fill="none" xmlns="http://www.w3.org/2000/svg">
<path fill-rule="evenodd" clip-rule="evenodd" d="M0 34.5C0 53.5572 15.4497 69 34.5 69C53.5503 69 69 53.5503 69 34.5C69 15.4497 53.5572 0 34.5 0C15.4428 0 0 15.4497 0 34.5Z" fill="url(#paint0_linear_14_55)"/>
<path fill-rule="evenodd" clip-rule="evenodd" d="M34.4994 12.3538H50.1565L50.1495 12.3469C50.7866 12.3469 51.2991 12.8594 51.2991 13.4964V22.5818C51.2991 23.2189 50.7866 23.7314 50.1495 23.7314H35.7736C34.8041 23.7314 34.0147 24.5208 34.0147 25.4903V33.3015C34.0147 33.9386 33.5022 34.451 32.8651 34.451H23.7798C23.1427 34.451 22.6302 33.9386 22.6302 33.3015V24.2161C22.6302 23.579 23.1427 23.0666 23.7798 23.0666H31.591C32.5605 23.0666 33.3499 22.2841 33.3499 21.3146V13.5034C33.3499 12.8663 33.8623 12.3538 34.4994 12.3538ZM34.3748 56.5274H18.7178V56.5343C18.0807 56.5343 17.5682 56.0219 17.5682 55.3848V46.2994C17.5682 45.6623 18.0807 45.1499 18.7178 45.1499H33.1006C34.0701 45.1499 34.8596 44.3604 34.8596 43.391V35.5798C34.8596 34.9427 35.372 34.4302 36.0091 34.4302H45.0945C45.7315 34.4302 46.244 34.9427 46.244 35.5798V44.6651C46.244 45.3022 45.7315 45.8147 45.0945 45.8147H37.2832C36.3138 45.8147 35.5243 46.5972 35.5243 47.5666V55.3779C35.5243 56.0149 35.0119 56.5274 34.3748 56.5274Z" fill="#060B21"/>
<path d="M91.2247 42.1788C90.9405 42.5157 90.7088 42.7315 90.5299 42.8263C90.3614 42.921 90.1508 42.9684 89.8981 42.9684C89.4033 42.9684 89.0032 42.8052 88.6979 42.4788C88.4031 42.1419 88.2557 41.5892 88.2557 40.8206V38.6412C88.2557 37.8621 88.4031 37.3093 88.6979 36.9829C89.0032 36.646 89.4033 36.4776 89.8981 36.4776C90.2772 36.4776 90.593 36.5776 90.8457 36.7776C91.1089 36.9777 91.309 37.3146 91.4458 37.7884C91.5827 38.2516 91.7249 38.5675 91.8723 38.7359C92.1776 39.0623 92.7198 39.394 93.4989 39.7309C94.278 40.0678 95.1308 40.2363 96.0574 40.2363C97.4998 40.2363 98.6842 39.8993 99.6107 39.2255C100.2 38.8149 100.495 38.3095 100.495 37.7094C100.495 37.3093 100.353 36.9355 100.069 36.5881C99.7845 36.2301 99.3212 35.9353 98.679 35.7037C98.2578 35.5458 97.3155 35.3299 95.8521 35.0562C94.0833 34.7298 92.7461 34.335 91.8407 33.8717C90.9352 33.4085 90.2193 32.7557 89.6928 31.9134C89.1664 31.0711 88.9032 30.1604 88.9032 29.1813C88.9032 27.6336 89.5507 26.2806 90.8457 25.1225C92.1407 23.9538 93.8253 23.3695 95.8994 23.3695C96.7312 23.3695 97.4998 23.4642 98.2052 23.6538C98.9211 23.8327 99.5686 24.1118 100.148 24.4908C100.569 24.0802 100.99 23.8749 101.411 23.8749C101.885 23.8749 102.269 24.0433 102.564 24.3802C102.869 24.7066 103.022 25.2541 103.022 26.0227V28.4548C103.022 29.2339 102.869 29.7919 102.564 30.1288C102.269 30.4552 101.885 30.6184 101.411 30.6184C101.011 30.6184 100.664 30.4973 100.369 30.2552C100.137 30.0762 99.9635 29.7182 99.8476 29.1813C99.7318 28.6443 99.5844 28.26 99.4054 28.0284C99.1001 27.6283 98.6421 27.2914 98.0315 27.0176C97.4208 26.7439 96.7154 26.607 95.9152 26.607C94.7466 26.607 93.82 26.8808 93.1357 27.4283C92.4619 27.9652 92.1249 28.5285 92.1249 29.1181C92.1249 29.5182 92.2618 29.9077 92.5356 30.2868C92.8198 30.6553 93.2304 30.9448 93.7674 31.1554C94.1254 31.3028 95.1308 31.5397 96.7838 31.866C98.4473 32.1924 99.7213 32.5504 100.606 32.94C101.501 33.3295 102.243 33.9402 102.832 34.7719C103.422 35.6037 103.717 36.5934 103.717 37.741C103.717 39.3413 103.154 40.6205 102.027 41.5786C100.532 42.8421 98.6263 43.4738 96.31 43.4738C95.4151 43.4738 94.5412 43.3632 93.6884 43.1421C92.8461 42.9316 92.0249 42.6104 91.2247 42.1788ZM123.934 27.0966V39.7625H126.113C126.892 39.7625 127.445 39.9151 127.771 40.2205C128.108 40.5153 128.277 40.9048 128.277 41.3891C128.277 41.8629 128.108 42.2525 127.771 42.5578C127.445 42.8526 126.892 43 126.113 43H118.533C117.753 43 117.195 42.8526 116.858 42.5578C116.532 42.2525 116.369 41.8577 116.369 41.3733C116.369 40.8996 116.532 40.5153 116.858 40.2205C117.195 39.9151 117.753 39.7625 118.533 39.7625H120.696V27.0966H117.19V30.1604C117.19 30.9395 117.037 31.4975 116.732 31.8345C116.437 32.1608 116.048 32.324 115.563 32.324C115.09 32.324 114.7 32.1608 114.395 31.8345C114.1 31.4975 113.953 30.9395 113.953 30.1604V23.8433L130.725 23.8591V30.1604C130.725 30.9395 130.572 31.4975 130.267 31.8345C129.972 32.1608 129.582 32.324 129.098 32.324C128.624 32.324 128.235 32.1608 127.929 31.8345C127.634 31.4975 127.487 30.9395 127.487 30.1604V27.0966H123.934ZM145.43 35.6879V39.7625H146.598C147.377 39.7625 147.93 39.9151 148.257 40.2205C148.594 40.5153 148.762 40.9048 148.762 41.3891C148.762 41.8629 148.594 42.2525 148.257 42.5578C147.93 42.8526 147.377 43 146.598 43H141.687C140.908 43 140.35 42.8526 140.013 42.5578C139.686 42.2525 139.523 41.8577 139.523 41.3733C139.523 40.8996 139.692 40.5153 140.029 40.2205C140.365 39.9151 140.918 39.7625 141.687 39.7625H142.192V27.0966H141.687C140.908 27.0966 140.35 26.9492 140.013 26.6544C139.686 26.3491 139.523 25.9543 139.523 25.4699C139.523 24.9856 139.686 24.5961 140.013 24.3013C140.35 23.9959 140.908 23.8433 141.687 23.8433L149.015 23.8591C151.299 23.8591 153.068 24.4276 154.321 25.5647C155.584 26.6913 156.216 28.0652 156.216 29.6866C156.216 30.6974 155.921 31.6186 155.332 32.4504C154.742 33.2716 153.853 34.0033 152.663 34.6456C153.347 35.2457 154.079 36.0143 154.858 36.9513C155.342 37.5515 155.995 38.4885 156.816 39.7625C157.638 39.7625 158.18 39.8467 158.443 40.0152C158.917 40.3415 159.154 40.7995 159.154 41.3891C159.154 41.8629 158.99 42.2525 158.664 42.5578C158.338 42.8526 157.785 43 157.006 43H155.158C152.536 38.9465 150.362 36.5091 148.636 35.6879H145.43ZM145.43 32.4504H147.957C148.894 32.4504 149.731 32.3082 150.468 32.024C151.457 31.6449 152.121 31.2449 152.458 30.8237C152.805 30.4026 152.979 29.9867 152.979 29.5761C152.979 28.9654 152.652 28.4021 152 27.8862C151.347 27.3598 150.394 27.0966 149.141 27.0966H145.43V32.4504ZM171.806 36.1775V39.7625H172.974C173.753 39.7625 174.306 39.9151 174.633 40.2205C174.97 40.5153 175.138 40.9048 175.138 41.3891C175.138 41.8629 174.97 42.2525 174.633 42.5578C174.306 42.8526 173.753 43 172.974 43H168.063C167.284 43 166.726 42.8526 166.389 42.5578C166.062 42.2525 165.899 41.8577 165.899 41.3733C165.899 40.8996 166.068 40.5153 166.405 40.2205C166.741 39.9151 167.294 39.7625 168.063 39.7625H168.568V27.0966H168.063C167.284 27.0966 166.726 26.9492 166.389 26.6544C166.062 26.3491 165.899 25.9543 165.899 25.4699C165.899 24.9856 166.062 24.5961 166.389 24.3013C166.726 23.9959 167.284 23.8433 168.063 23.8433L172.974 23.8591C173.753 23.8591 174.306 24.0065 174.633 24.3013C174.97 24.5961 175.138 24.9856 175.138 25.4699C175.138 25.9543 174.97 26.3491 174.633 26.6544C174.306 26.9492 173.753 27.0966 172.974 27.0966H171.806V31.8976L177.554 26.9545C177.217 26.7123 176.986 26.4859 176.859 26.2754C176.733 26.0648 176.67 25.8069 176.67 25.5015C176.67 25.0067 176.833 24.6066 177.159 24.3013C177.496 23.9959 178.054 23.8433 178.833 23.8433L182.134 23.8591C182.913 23.8591 183.466 24.0065 183.792 24.3013C184.129 24.5961 184.298 24.9856 184.298 25.4699C184.298 25.9437 184.129 26.3333 183.792 26.6386C183.466 26.9439 182.95 27.0966 182.245 27.0966L176.433 32.1819C177.517 32.8031 178.533 33.7507 179.481 35.0246C180.439 36.2986 181.287 37.8779 182.024 39.7625H182.892C183.661 39.7625 184.208 39.9151 184.535 40.2205C184.872 40.5153 185.04 40.9048 185.04 41.3891C185.04 41.8629 184.877 42.2525 184.551 42.5578C184.224 42.8526 183.671 43 182.892 43H179.955C179.281 41.3891 178.544 39.852 177.744 38.3885C177.091 37.1988 176.47 36.3354 175.88 35.7985C175.301 35.251 174.606 34.814 173.796 34.4877L171.806 36.1775ZM199.366 35.0246V39.7625H202.683C203.462 39.7625 204.015 39.9151 204.341 40.2205C204.678 40.5153 204.846 40.9048 204.846 41.3891C204.846 41.8629 204.678 42.2525 204.341 42.5578C204.015 42.8526 203.462 43 202.683 43H195.623C194.844 43 194.286 42.8526 193.949 42.5578C193.623 42.2525 193.46 41.8577 193.46 41.3733C193.46 40.8996 193.628 40.5153 193.965 40.2205C194.302 39.9151 194.855 39.7625 195.623 39.7625H196.129V27.0966H195.623C194.844 27.0966 194.286 26.9492 193.949 26.6544C193.623 26.3491 193.46 25.9543 193.46 25.4699C193.46 24.9856 193.623 24.5961 193.949 24.3013C194.286 23.9959 194.844 23.8433 195.623 23.8433L210.863 23.8591V28.8022C210.863 29.5708 210.711 30.1236 210.405 30.4605C210.111 30.7869 209.721 30.9501 209.237 30.9501C208.763 30.9501 208.373 30.7869 208.068 30.4605C207.773 30.1341 207.626 29.5813 207.626 28.8022V27.0966H199.366V31.7871H202.209C202.209 30.9448 202.288 30.4026 202.446 30.1604C202.772 29.6445 203.235 29.3866 203.836 29.3866C204.309 29.3866 204.694 29.555 204.988 29.8919C205.294 30.2183 205.446 30.7711 205.446 31.5502V35.2773C205.446 36.0564 205.294 36.6144 204.988 36.9513C204.694 37.2777 204.304 37.4409 203.82 37.4409C203.23 37.4409 202.772 37.183 202.446 36.6671C202.288 36.4249 202.209 35.8774 202.209 35.0246H199.366ZM230.906 43V42.2419C230.096 42.6736 229.201 42.9947 228.222 43.2053C227.242 43.4264 226.353 43.537 225.553 43.537C223.815 43.537 222.405 43.079 221.32 42.163C220.236 41.2365 219.693 40.2152 219.693 39.0992C219.693 37.741 220.383 36.4828 221.762 35.3247C223.152 34.156 225.068 33.5717 227.511 33.5717C228.49 33.5717 229.622 33.677 230.906 33.8875V33.1137C230.906 32.6294 230.696 32.2345 230.275 31.9292C229.864 31.6239 229.074 31.4712 227.906 31.4712C226.948 31.4712 225.705 31.6607 224.179 32.0398C223.61 32.1766 223.168 32.2451 222.852 32.2451C222.42 32.2451 222.052 32.0924 221.747 31.7871C221.452 31.4712 221.304 31.0711 221.304 30.5868C221.304 30.3131 221.357 30.0762 221.462 29.8761C221.568 29.6761 221.715 29.5182 221.904 29.4024C222.094 29.276 222.489 29.1286 223.089 28.9602C223.889 28.7391 224.705 28.5653 225.537 28.439C226.369 28.3021 227.121 28.2337 227.795 28.2337C229.806 28.2337 231.364 28.6706 232.47 29.5445C233.586 30.4078 234.144 31.5923 234.144 33.0979V39.7625H234.697C235.476 39.7625 236.029 39.9151 236.355 40.2205C236.692 40.5153 236.86 40.9048 236.86 41.3891C236.86 41.8629 236.692 42.2525 236.355 42.5578C236.029 42.8526 235.476 43 234.697 43H230.906ZM230.906 37.204C229.611 36.9513 228.416 36.825 227.321 36.825C226.005 36.825 224.874 37.1461 223.926 37.7884C223.336 38.199 223.042 38.6149 223.042 39.036C223.042 39.3413 223.184 39.5887 223.468 39.7783C223.994 40.1257 224.716 40.2994 225.632 40.2994C226.411 40.2994 227.29 40.1468 228.269 39.8414C229.259 39.5361 230.138 39.1202 230.906 38.5938V37.204ZM253.729 28.6601V30.6816C255.087 29.7024 256.156 29.0497 256.935 28.7233C257.725 28.3969 258.462 28.2337 259.146 28.2337C260.199 28.2337 261.22 28.6232 262.21 29.4024C262.884 29.9288 263.221 30.4657 263.221 31.0132C263.221 31.4765 263.057 31.8713 262.731 32.1977C262.415 32.5135 262.031 32.6715 261.578 32.6715C261.178 32.6715 260.757 32.4714 260.315 32.0714C259.872 31.6713 259.478 31.4712 259.13 31.4712C258.677 31.4712 257.998 31.7555 257.093 32.324C256.198 32.8926 255.077 33.7454 253.729 34.8825V39.7625H258.341C259.12 39.7625 259.672 39.9151 259.999 40.2205C260.336 40.5153 260.504 40.9048 260.504 41.3891C260.504 41.8629 260.336 42.2525 259.999 42.5578C259.672 42.8526 259.12 43 258.341 43H248.565C247.786 43 247.228 42.8526 246.891 42.5578C246.564 42.2525 246.401 41.8577 246.401 41.3733C246.401 40.8996 246.564 40.5153 246.891 40.2205C247.228 39.9151 247.786 39.7625 248.565 39.7625H250.491V31.8976H249.323C248.544 31.8976 247.986 31.7502 247.649 31.4554C247.322 31.1501 247.159 30.7553 247.159 30.271C247.159 29.7972 247.322 29.4129 247.649 29.1181C247.986 28.8128 248.544 28.6601 249.323 28.6601H253.729ZM275.809 28.6601V29.5761C276.336 29.0602 276.81 28.7075 277.231 28.518C277.662 28.3179 278.157 28.2179 278.715 28.2179C279.189 28.2179 279.658 28.3337 280.121 28.5653C280.584 28.797 281.037 29.1444 281.479 29.6077C282.037 29.1444 282.6 28.8022 283.169 28.5811C283.748 28.3495 284.337 28.2337 284.938 28.2337C286.138 28.2337 287.112 28.5548 287.859 29.1971C288.849 30.0393 289.344 31.1448 289.344 32.5135V39.7625C290.018 39.7625 290.518 39.9151 290.844 40.2205C291.171 40.5258 291.334 40.9153 291.334 41.3891C291.334 41.8629 291.171 42.2525 290.844 42.5578C290.518 42.8526 289.965 43 289.186 43H286.106V32.782C286.106 32.2872 286.017 31.945 285.838 31.7555C285.659 31.566 285.385 31.4712 285.017 31.4712C284.659 31.4712 284.327 31.566 284.022 31.7555C283.632 32.0187 283.158 32.5135 282.6 33.24V39.7625C283.274 39.7625 283.774 39.9151 284.101 40.2205C284.427 40.5258 284.59 40.9153 284.59 41.3891C284.59 41.8629 284.427 42.2525 284.101 42.5578C283.774 42.8526 283.221 43 282.442 43H279.363V32.782C279.363 32.2977 279.268 31.9608 279.078 31.7713C278.899 31.5712 278.626 31.4712 278.257 31.4712C277.878 31.4712 277.504 31.5923 277.136 31.8345C276.767 32.0661 276.325 32.5346 275.809 33.24V39.7625C276.483 39.7625 276.983 39.9151 277.31 40.2205C277.647 40.5258 277.815 40.9153 277.815 41.3891C277.815 41.8629 277.647 42.2525 277.31 42.5578C276.983 42.8526 276.431 43 275.651 43H272.73C271.951 43 271.398 42.8526 271.072 42.5578C270.735 42.2525 270.566 41.8577 270.566 41.3733C270.566 40.8996 270.729 40.5153 271.056 40.2205C271.382 39.9151 271.887 39.7625 272.572 39.7625V31.8976C271.887 31.8976 271.382 31.745 271.056 31.4396C270.729 31.1343 270.566 30.7448 270.566 30.271C270.566 29.7972 270.735 29.4129 271.072 29.1181C271.398 28.8128 271.951 28.6601 272.73 28.6601H275.809Z" fill="url(#paint1_linear_14_55)"/>
<defs>
<linearGradient id="paint0_linear_14_55" x1="0" y1="34.5" x2="69" y2="34.5" gradientUnits="userSpaceOnUse">
<stop stop-color="#6F4FF2"/>
<stop offset="1" stop-color="#AD99FF"/>
</linearGradient>
<linearGradient id="paint1_linear_14_55" x1="86.25" y1="34.5" x2="291.25" y2="34.5" gradientUnits="userSpaceOnUse">
<stop stop-color="#6F4FF2"/>
<stop offset="1" stop-color="#AD99FF"/>
</linearGradient>
</defs>
</svg>
