<svg width="60" height="60" viewBox="0 0 60 60" fill="none" xmlns="http://www.w3.org/2000/svg">
<path d="M59.1024 37.2571C55.0952 53.3287 38.8154 63.1096 22.7401 59.1018C6.67158 55.0951 -3.11037 38.8162 0.898557 22.7459C4.90396 6.67257 21.1837 -3.10901 37.254 0.897702C53.3282 4.90442 63.1095 21.1851 59.1019 37.2574L59.1022 37.2571H59.1024Z" fill="#F29427"/>
<path d="M43.2308 25.729C43.828 21.7367 40.7882 19.5906 36.6314 18.159L37.9799 12.751L34.6875 11.9307L33.3748 17.1963C32.5093 16.9805 31.6204 16.7771 30.737 16.5755L32.0592 11.2751L28.7689 10.4548L27.4196 15.8611C26.7034 15.698 25.9999 15.5368 25.3174 15.367L25.3212 15.35L20.7809 14.2164L19.9051 17.7324C19.9051 17.7324 22.3478 18.2923 22.2963 18.3268C23.6295 18.6595 23.8706 19.5419 23.8306 20.2414L22.2945 26.4024C22.3863 26.4257 22.5054 26.4594 22.6368 26.5122C22.527 26.4849 22.4101 26.4552 22.2888 26.4261L20.1358 35.0568C19.9729 35.4618 19.5593 36.0696 18.6272 35.8388C18.6602 35.8866 16.2342 35.2417 16.2342 35.2417L14.5996 39.01L18.8841 40.0779C19.6812 40.2778 20.4622 40.4869 21.2314 40.6835L19.869 46.1535L23.1576 46.9738L24.5068 41.5619C25.4052 41.8057 26.2771 42.0307 27.1306 42.2427L25.7859 47.6291L29.0784 48.4494L30.4407 42.9897C36.0549 44.0521 40.2763 43.6237 42.0532 38.5463C43.485 34.4583 41.9819 32.1004 39.0283 30.5628C41.1796 30.0667 42.8 28.6519 43.232 25.7295L43.231 25.7287L43.2308 25.729ZM35.7085 36.276C34.691 40.364 27.8074 38.1542 25.5756 37.6L27.3836 30.3532C29.6152 30.9103 36.7719 32.0127 35.7087 36.276H35.7085ZM36.7267 25.6698C35.7986 29.3882 30.0692 27.4991 28.2107 27.0358L29.8498 20.4634C31.7084 20.9266 37.6936 21.7912 36.727 25.6698H36.7267Z" fill="white"/>
</svg>
