<svg width="100%" height="100%" viewBox="0 0 42 40" fill="none" xmlns="http://www.w3.org/2000/svg">
<path d="M20.5128 0C31.8425 0 41.0256 8.9552 41.0256 20C41.0256 31.0448 31.8425 40 20.5128 40C9.18318 40 0 31.0456 0 20C0 8.9544 9.18482 0 20.5128 0Z" fill="#F5AC37"/>
<path d="M21.2685 21.4152H29.0634C29.2275 21.4152 29.3096 21.4152 29.3194 21.2024C29.3834 20.4288 29.3834 19.6513 29.3194 18.8776C29.3194 18.728 29.2431 18.6656 29.0733 18.6656H13.5639C13.3719 18.6656 13.3178 18.728 13.3178 18.9056V21.1304C13.3178 21.4176 13.3178 21.4176 13.6246 21.4176L21.2685 21.4152ZM28.4489 16.0656C28.4713 16.0096 28.4713 15.9473 28.4489 15.8912C28.3192 15.6154 28.1641 15.3516 27.9853 15.1032C27.7164 14.681 27.3978 14.2909 27.0359 13.9408C26.8655 13.7296 26.6672 13.5412 26.446 13.3808C25.3361 12.4596 24.0178 11.8084 22.5994 11.4808C21.8842 11.3246 21.153 11.2489 20.4201 11.2552H13.536C13.344 11.2552 13.3178 11.3304 13.3178 11.4952V15.9328C13.3178 16.12 13.3178 16.1728 13.5639 16.1728H28.3586C28.3586 16.1728 28.4866 16.1472 28.5129 16.0728H28.4489V16.0656ZM28.4489 24.0152C28.2307 23.992 28.0106 23.992 27.7924 24.0152H13.5762C13.3842 24.0152 13.3202 24.0152 13.3202 24.2656V28.6032C13.3202 28.8032 13.3202 28.8536 13.5762 28.8536H20.1403C20.4536 28.8766 20.7686 28.8556 21.0757 28.7912C22.0286 28.725 22.9663 28.5228 23.8589 28.1912C24.1844 28.081 24.4976 27.9387 24.7935 27.7664H24.8837C26.4215 26.9873 27.6718 25.7599 28.4603 24.2552C28.4603 24.2552 28.5498 24.0664 28.4497 24.0152H28.4489ZM10.743 31.1024V24.1904C10.743 24.0304 10.743 24.0032 10.5379 24.0032H7.75552C7.60127 24.0032 7.53809 24.0032 7.53809 23.804V21.4288H10.5116C10.6757 21.4288 10.743 21.4288 10.743 21.216V18.8664C10.743 18.716 10.743 18.6792 10.5379 18.6792H7.75552C7.60127 18.6792 7.53809 18.6792 7.53809 18.4792V16.28C7.53809 16.1416 7.53809 16.1048 7.74239 16.1048H10.4993C10.6913 16.1048 10.7455 16.1048 10.7455 15.8648V9.12723C10.7455 8.92803 10.7455 8.87762 11.0015 8.87762H20.6171C21.3139 8.90404 22.0079 8.97917 22.6938 9.10243C24.1065 9.35786 25.4637 9.8482 26.7061 10.552C27.5288 11.0238 28.287 11.5953 28.9625 12.2528C29.4702 12.7677 29.9299 13.3256 30.336 13.92C30.7389 14.5209 31.0744 15.1622 31.3371 15.8328C31.3529 15.9169 31.4019 15.9915 31.4735 16.0407C31.5452 16.0899 31.6337 16.1098 31.7202 16.096H34.0177C34.3122 16.096 34.3122 16.096 34.3245 16.3712V18.4216C34.3245 18.6208 34.2482 18.6712 34.0423 18.6712H32.2733C32.0936 18.6712 32.0419 18.6712 32.055 18.8968C32.1256 19.6574 32.1256 20.4226 32.055 21.1832C32.055 21.396 32.055 21.4232 32.3012 21.4232H34.3254C34.4148 21.536 34.3254 21.6488 34.3254 21.7616C34.3385 21.9069 34.3385 22.0531 34.3254 22.1984V23.7112C34.3254 23.924 34.2622 23.9864 34.0694 23.9864H31.6456C31.5638 23.9719 31.4795 23.9887 31.4102 24.0335C31.3409 24.0782 31.292 24.1474 31.2739 24.2264C30.6965 25.69 29.774 27.0005 28.581 28.052C28.1426 28.4332 27.6823 28.7897 27.2025 29.12C26.6889 29.408 26.1892 29.7072 25.6632 29.9448C24.6946 30.3685 23.6792 30.6823 22.6372 30.88C21.6474 31.0531 20.6429 31.1335 19.6374 31.12H10.7397V31.1072L10.743 31.1024Z" fill="#FEFEFD"/>
</svg>
