<svg width="100%" height="100%" viewBox="0 0 40 40" fill="none" xmlns="http://www.w3.org/2000/svg">
<path d="M20 40C31.0457 40 40 31.0457 40 20C40 8.95431 31.0457 0 20 0C8.95431 0 0 8.95431 0 20C0 31.0457 8.95431 40 20 40Z" fill="#EFEFEF"/>
<path d="M19.9982 7.90527L19.8358 8.45647V24.4541L19.9982 24.6157L27.4238 20.2261L19.9982 7.90527Z" fill="#343434"/>
<path d="M19.9983 7.90527L12.5728 20.2261L19.9983 24.6157V16.8509V7.90527Z" fill="#8C8C8C"/>
<path d="M19.9982 26.0213L19.9062 26.1333V31.8317L19.9982 32.0981L27.4278 21.6349L19.9982 26.0213Z" fill="#3C3C3B"/>
<path d="M19.9983 32.0981V26.0213L12.5727 21.6349L19.9983 32.0981Z" fill="#8C8C8C"/>
<path d="M19.9982 24.6157L27.4238 20.2262L19.9982 16.851V24.6157Z" fill="#141414"/>
<path d="M12.5727 20.2262L19.9983 24.6157V16.851L12.5727 20.2262Z" fill="#393939"/>
</svg>
