<svg width="40" height="40" viewBox="0 0 40 40" fill="none" xmlns="http://www.w3.org/2000/svg">
<g clip-path="url(#clip0_2253_108)">
<path d="M0 19.9999C0 31.0459 8.95405 40 19.9997 40C31.0455 40 40 31.0456 40 19.9999C40 8.9542 31.0455 0 19.9997 0C8.95405 0 0 8.95417 0 19.9999Z" fill="#0C0C4F"/>
<path fill-rule="evenodd" clip-rule="evenodd" d="M0 20C0 8.95419 8.95405 0 19.9997 0C31.0455 0 40 8.95418 40 20C40 31.0456 31.0455 40 19.9997 40C8.95405 40 0 31.0458 0 20ZM19.9997 1.78661C9.94079 1.78661 1.78661 9.94089 1.78661 20C1.78661 30.0592 9.9408 38.2134 19.9997 38.2134C30.0588 38.2134 38.2134 30.0589 38.2134 20C38.2134 9.94094 30.0588 1.78661 19.9997 1.78661Z" fill="url(#paint0_linear_2253_108)"/>
<path fill-rule="evenodd" clip-rule="evenodd" d="M11.3533 15.382L11.8372 13.887C11.9356 13.5829 12.1756 13.3463 12.4808 13.253L13.9831 12.791C14.191 12.7275 14.1927 12.4341 13.9864 12.3672L12.4909 11.8833C12.1874 11.7849 11.9508 11.5449 11.8569 11.2397L11.3955 9.73744C11.332 9.53005 11.0386 9.52779 10.9717 9.73461L10.4878 11.2296C10.3895 11.5331 10.1495 11.7698 9.84429 11.8636L8.34198 12.325C8.13404 12.3891 8.13179 12.6819 8.33861 12.7488L9.83417 13.2327C10.1377 13.3311 10.3743 13.5716 10.4681 13.8768L10.9296 15.3786C10.9931 15.5865 11.2865 15.5888 11.3533 15.382Z" fill="#FAFAFA"/>
<path fill-rule="evenodd" clip-rule="evenodd" d="M35.0987 14.5117C34.4794 13.8192 33.5129 13.4292 32.5732 13.2693C31.626 13.1158 30.6327 13.13 29.6978 13.2961C27.8057 13.6162 26.0868 14.3996 24.5876 15.3661C23.8091 15.8404 23.1451 16.3893 22.4573 16.9482C22.1259 17.2309 21.8237 17.532 21.509 17.8287L20.6492 18.6842C19.7149 19.6609 18.794 20.5504 17.903 21.2877C17.0084 22.0216 16.172 22.579 15.3477 22.9683C14.5239 23.3595 13.6425 23.5896 12.4937 23.6265C11.3549 23.6666 10.0076 23.4611 8.56647 23.1219C7.11759 22.7841 5.5961 22.3027 3.89587 21.8885C4.48912 23.5343 5.38247 24.9887 6.52945 26.3183C7.68987 27.6248 9.13888 28.8154 11.0003 29.5985C12.8349 30.399 15.1404 30.6864 17.296 30.2529C19.4574 29.8367 21.3542 28.8367 22.8873 27.6799C24.4244 26.5114 25.668 25.1803 26.7164 23.7965C27.0057 23.4141 27.1588 23.2002 27.3682 22.9013L27.9471 22.0439C28.3494 21.5135 28.7156 20.9096 29.1136 20.3841C29.8943 19.2836 30.664 18.1843 31.5583 17.1715C32.0084 16.6578 32.4831 16.1665 33.0434 15.6943C33.3228 15.4638 33.6248 15.2382 33.9593 15.0351C34.2987 14.8159 34.6573 14.6444 35.0987 14.5117Z" fill="url(#paint1_linear_2253_108)"/>
<path fill-rule="evenodd" clip-rule="evenodd" d="M35.0987 14.5116C34.4335 12.8327 33.1965 11.4194 31.5362 10.3765C29.8861 9.34511 27.5943 8.81875 25.3231 9.26744C24.2012 9.48444 23.1142 9.90221 22.1603 10.4585C21.2107 11.0127 20.3598 11.6797 19.6231 12.3953C19.2554 12.7544 18.9216 13.1289 18.59 13.5055L17.7305 14.6013L16.4029 16.3653C14.7106 18.6349 12.8881 21.2948 9.89734 22.0829C6.96128 22.8566 5.68786 22.1714 3.89587 21.8883C4.22354 22.7342 4.6294 23.5558 5.17962 24.2785C5.7196 25.0159 6.35741 25.7083 7.15036 26.3021C7.55108 26.5872 7.97416 26.8686 8.44404 27.1073C8.9118 27.3379 9.41622 27.5408 9.95463 27.6935C11.0256 27.987 12.2313 28.09 13.3988 27.9319C14.5667 27.7761 15.6831 27.4061 16.6589 26.9145C17.6419 26.4274 18.4983 25.8344 19.2629 25.2086C20.7829 23.9463 21.9652 22.5516 22.9639 21.1418C23.4662 20.4369 23.9222 19.7187 24.3439 19.0003L24.8402 18.1451C24.992 17.8951 25.1454 17.6436 25.3012 17.4093C25.9303 16.4681 26.5454 15.7134 27.2925 15.147C28.0293 14.5659 29.0553 14.1365 30.4263 14.0368C31.7915 13.9359 33.3677 14.1223 35.0987 14.5116Z" fill="#FAFAFA"/>
<path fill-rule="evenodd" clip-rule="evenodd" d="M27.7125 28.4614C27.7125 29.6947 28.7128 30.6947 29.9458 30.6947C31.179 30.6947 32.1778 29.6947 32.1778 28.4614C32.1778 27.2284 31.179 26.2281 29.9458 26.2281C28.7128 26.2281 27.7125 27.2284 27.7125 28.4614Z" fill="url(#paint2_linear_2253_108)"/>
</g>
<defs>
<linearGradient id="paint0_linear_2253_108" x1="37.4938" y1="10.4468" x2="1.9127" y2="17.0489" gradientUnits="userSpaceOnUse">
<stop stop-color="#EC796B"/>
<stop offset="1" stop-color="#E175B1"/>
</linearGradient>
<linearGradient id="paint1_linear_2253_108" x1="34.932" y1="13.9226" x2="7.46881" y2="29.1818" gradientUnits="userSpaceOnUse">
<stop stop-color="#EC796B"/>
<stop offset="1" stop-color="#E175B1"/>
</linearGradient>
<linearGradient id="paint2_linear_2253_108" x1="32.1763" y1="26.8949" x2="27.7095" y2="27.3674" gradientUnits="userSpaceOnUse">
<stop stop-color="#EC796B"/>
<stop offset="1" stop-color="#E175B1"/>
</linearGradient>
<clipPath id="clip0_2253_108">
<rect width="40" height="40" fill="white"/>
</clipPath>
</defs>
</svg>
