<svg width="60" height="60" viewBox="0 0 60 60" fill="none" xmlns="http://www.w3.org/2000/svg">
<g clip-path="url(#clip0_4251_124816)">
<circle cx="30" cy="30" r="30" fill="#D9D9D9"/>
<path d="M58.4202 30C58.4202 30.4658 58.4092 30.93 58.3855 31.3943C58.3634 31.8585 58.3287 32.3227 58.2829 32.7853C58.2371 33.2479 58.1802 33.709 58.1123 34.17C58.0444 34.6295 57.9639 35.089 57.8739 35.5437C57.7839 35.9985 57.6813 36.4532 57.5676 36.9048C57.4539 37.3564 57.3308 37.8048 57.195 38.2485C57.0592 38.6937 56.9139 39.1358 56.7576 39.5732C56.6013 40.0106 56.4339 40.4448 56.2555 40.8743C56.0771 41.3037 55.8892 41.7285 55.6902 42.15C55.4913 42.57 55.2829 42.9853 55.0634 43.3958C54.8439 43.8064 54.615 44.2106 54.3766 44.61C54.1381 45.0095 53.8887 45.4011 53.6297 45.7879C53.3708 46.1748 53.1039 46.5553 52.826 46.9279C52.5497 47.3021 52.2623 47.6685 51.9671 48.0285C51.6718 48.3885 51.3687 48.7406 51.056 49.0848C50.7434 49.429 50.4229 49.7669 50.0944 50.0953C49.766 50.4237 49.4281 50.7442 49.0839 51.0569C48.7397 51.3695 48.3876 51.6727 48.0276 51.9679C47.6676 52.2632 47.3013 52.549 46.9271 52.8269C46.5529 53.1048 46.1739 53.3716 45.7871 53.6306C45.4002 53.8895 45.0071 54.1374 44.6092 54.3774C44.2113 54.6174 43.8055 54.8464 43.395 55.0643C42.9844 55.2821 42.5692 55.4921 42.1492 55.6911C41.7292 55.89 41.3029 56.0779 40.8734 56.2564C40.4439 56.4348 40.0097 56.6021 39.5723 56.7585C39.135 56.9148 38.6929 57.0616 38.2476 57.1958C37.8023 57.3316 37.3539 57.4548 36.9039 57.5685C36.4523 57.6821 35.9992 57.7832 35.5429 57.8748C35.0865 57.9648 34.6287 58.0453 34.1676 58.1132C33.7081 58.1811 33.2455 58.2379 32.7829 58.2837C32.3202 58.3295 31.856 58.3643 31.3918 58.3864C30.9276 58.4085 30.4618 58.4211 29.9976 58.4211C29.5334 58.4211 29.0676 58.41 28.6034 58.3864C28.1392 58.3643 27.675 58.3295 27.2123 58.2837C26.7497 58.2379 26.2887 58.1811 25.8276 58.1132C25.3681 58.0453 24.9087 57.9648 24.4539 57.8748C23.9992 57.7848 23.5444 57.6821 23.0929 57.5685C22.6413 57.4548 22.1929 57.3316 21.7492 57.1958C21.3055 57.06 20.8618 56.9148 20.4244 56.7585C19.9871 56.6021 19.5529 56.4348 19.1234 56.2564C18.6939 56.0779 18.2692 55.89 17.8476 55.6911C17.426 55.4921 17.0123 55.2837 16.6018 55.0643C16.1913 54.8448 15.7871 54.6158 15.3876 54.3774C14.9881 54.139 14.5965 53.8895 14.2097 53.6306C13.8229 53.3716 13.4423 53.1048 13.0697 52.8269C12.6971 52.549 12.3292 52.2632 11.9708 51.9679C11.6123 51.6727 11.2587 51.3695 10.9144 51.0569C10.5702 50.7442 10.2323 50.4237 9.90391 50.0953C9.57549 49.7669 9.25497 49.429 8.94234 49.0848C8.6297 48.7406 8.32655 48.3885 8.03128 48.0285C7.73602 47.6685 7.45023 47.3021 7.17234 46.9279C6.89602 46.5537 6.6276 46.1748 6.36865 45.7879C6.1097 45.4011 5.86181 45.0079 5.62181 44.61C5.38339 44.2106 5.15286 43.8064 4.93497 43.3958C4.71549 42.9853 4.50707 42.57 4.30813 42.15C4.10918 41.73 3.92128 41.3037 3.74286 40.8743C3.56444 40.4448 3.39707 40.0106 3.24076 39.5732C3.08444 39.1358 2.9376 38.6937 2.80339 38.2485C2.6676 37.8032 2.54444 37.3548 2.43076 36.9048C2.31707 36.4532 2.21602 36 2.12444 35.5437C2.03444 35.0874 1.95391 34.6295 1.88602 34.17C1.81812 33.7106 1.76128 33.2479 1.71549 32.7853C1.6697 32.3227 1.63497 31.8585 1.61286 31.3943C1.59076 30.93 1.57812 30.4643 1.57812 30C1.57812 29.5358 1.58918 29.07 1.61286 28.6058C1.63497 28.1416 1.6697 27.6774 1.71549 27.2148C1.76128 26.7521 1.81812 26.2911 1.88602 25.83C1.95391 25.3706 2.03444 24.9111 2.12444 24.4564C2.21444 24 2.31707 23.5469 2.43076 23.0953C2.54444 22.6437 2.6676 22.1953 2.80339 21.7516C2.93918 21.3064 3.08444 20.8643 3.24076 20.4269C3.39707 19.9895 3.56444 19.5553 3.74286 19.1258C3.92128 18.6964 4.10918 18.2716 4.30813 17.85C4.50707 17.4285 4.71549 17.0148 4.93497 16.6043C5.15444 16.1937 5.38339 15.7895 5.62181 15.39C5.86023 14.9906 6.1097 14.599 6.36865 14.2121C6.6276 13.8253 6.89444 13.4448 7.17234 13.0721C7.44865 12.6979 7.73602 12.3316 8.03128 11.9732C8.32655 11.6132 8.6297 11.2611 8.94234 10.9169C9.25497 10.5727 9.57549 10.2348 9.90391 9.90636C10.2323 9.57794 10.5702 9.25741 10.9144 8.94478C11.2587 8.63215 11.6108 8.32899 11.9708 8.03373C12.3308 7.73846 12.6971 7.45267 13.0697 7.17478C13.4439 6.89846 13.8229 6.63004 14.2097 6.37109C14.5965 6.11215 14.9897 5.86425 15.3876 5.62425C15.7871 5.38583 16.1913 5.1553 16.6018 4.93741C17.0123 4.71794 17.4276 4.50951 17.8476 4.31057C18.2676 4.11162 18.6939 3.92372 19.1234 3.7453C19.5529 3.56688 19.9871 3.39951 20.4244 3.2432C20.8618 3.08688 21.3039 2.94004 21.7492 2.80583C22.1944 2.67004 22.6429 2.54688 23.0929 2.4332C23.5429 2.31951 23.9976 2.21846 24.4539 2.12688C24.9102 2.03688 25.3681 1.95636 25.8276 1.88846C26.2871 1.82057 26.7497 1.76372 27.2123 1.71793C27.675 1.67215 28.1392 1.63741 28.6034 1.6153C29.0676 1.5932 29.5334 1.58057 29.9976 1.58057C30.4618 1.58057 30.9276 1.59162 31.3918 1.6153C31.856 1.63741 32.3202 1.67215 32.7829 1.71793C33.2455 1.76372 33.7065 1.82057 34.1676 1.88846C34.6271 1.95636 35.0865 2.03688 35.5429 2.12688C35.9992 2.21688 36.4523 2.31951 36.9039 2.4332C37.3555 2.54688 37.8039 2.67004 38.2476 2.80583C38.6929 2.94162 39.135 3.08688 39.5723 3.2432C40.0097 3.39951 40.4439 3.56688 40.8734 3.7453C41.3029 3.92372 41.7276 4.11162 42.1492 4.31057C42.5692 4.50951 42.9844 4.71794 43.395 4.93741C43.8055 5.15688 44.2097 5.38583 44.6092 5.62425C45.0087 5.86267 45.4002 6.11215 45.7871 6.37109C46.1739 6.63004 46.5544 6.89688 46.9271 7.17478C47.3013 7.45109 47.6676 7.73846 48.0276 8.03373C48.3876 8.32899 48.7397 8.63215 49.0839 8.94478C49.4281 9.25741 49.766 9.57794 50.0944 9.90636C50.4229 10.2348 50.7434 10.5727 51.056 10.9169C51.3687 11.2611 51.6718 11.6132 51.9671 11.9732C52.2623 12.3332 52.5481 12.6995 52.826 13.0721C53.1023 13.4464 53.3708 13.8253 53.6297 14.2121C53.8887 14.599 54.1366 14.9921 54.3766 15.39C54.615 15.7895 54.8455 16.1937 55.0634 16.6043C55.2829 17.0148 55.4913 17.43 55.6902 17.85C55.8892 18.27 56.0771 18.6964 56.2555 19.1258C56.4339 19.5553 56.6013 19.9895 56.7576 20.4269C56.9139 20.8643 57.0608 21.3064 57.195 21.7516C57.3292 22.1969 57.4539 22.6453 57.5676 23.0953C57.6813 23.5469 57.7823 24 57.8739 24.4564C57.9639 24.9127 58.0444 25.3706 58.1123 25.83C58.1802 26.2895 58.2371 26.7521 58.2829 27.2148C58.3287 27.6774 58.3634 28.1416 58.3855 28.6058C58.4076 29.07 58.4202 29.5358 58.4202 30Z" stroke="#080503" stroke-width="3.15789"/>
<path fill-rule="evenodd" clip-rule="evenodd" d="M34.1227 27.7232C35.9937 27.7548 40.069 27.8227 40.069 24.9663C40.0706 22.0453 36.1532 22.1479 34.2348 22.1985C34.0185 22.2048 33.8274 22.2095 33.6711 22.2095V27.72C33.8006 27.72 33.9521 27.7232 34.1227 27.7248V27.7232ZM34.2016 36.5779C36.4421 36.6095 41.3385 36.6806 41.3385 33.5369H41.3353C41.3353 30.3206 36.6253 30.4327 34.3311 30.4863C34.0769 30.4927 33.8527 30.4974 33.6664 30.4974V36.5716C33.8195 36.5716 33.9995 36.5748 34.2 36.5779H34.2016ZM38.5311 19.0579C42.0632 19.3706 44.8595 20.4679 45.169 23.7363C45.3995 26.1269 44.4079 27.559 42.8227 28.3769C45.4327 29.0132 47.0685 30.5763 46.7432 34.0848C46.3437 38.4395 43.1227 39.6063 38.5248 39.8716V41.929H35.79V39.9332C35.0811 39.9332 34.3548 39.9269 33.6048 39.9111V41.929H30.8716V39.8621C30.2321 39.8574 27.2843 39.8448 26.6211 39.8448L26.6416 37.4479H28.9232V21.51L26.6416 21.4974L26.6495 19.0658C26.6495 19.0658 30.2874 19.069 30.8779 19.0579V16.9658H33.6111V18.9695C34.3421 18.9553 35.0764 18.9411 35.7948 18.9411V16.9674H38.5295V19.0611L38.5311 19.0579Z" fill="#080503"/>
<path d="M20.1299 22.7778H15.7246V27.221H20.1299V22.7778Z" fill="#080503"/>
<path d="M24.5342 27.2212H20.1289V31.6643H24.5342V27.2212Z" fill="#080503"/>
<path d="M15.7236 27.2212H11.3184V31.6643H15.7236V27.2212Z" fill="#080503"/>
<path d="M20.1299 31.6643H15.7246V36.1075H20.1299V31.6643Z" fill="#080503"/>
</g>
<defs>
<clipPath id="clip0_4251_124816">
<rect width="60" height="60" fill="white"/>
</clipPath>
</defs>
</svg>
