<?xml version="1.0" standalone="no"?>
<!DOCTYPE svg PUBLIC "-//W3C//DTD SVG 20010904//EN"
 "http://www.w3.org/TR/2001/REC-SVG-20010904/DTD/svg10.dtd">
<svg version="1.0" xmlns="http://www.w3.org/2000/svg"
 width="400.000000pt" height="400.000000pt" viewBox="0 0 400.000000 400.000000"
 preserveAspectRatio="xMidYMid meet">

<g transform="translate(0.000000,400.000000) scale(0.100000,-0.100000)"
fill="#000000" stroke="none">
<path d="M0 2000 l0 -2000 2000 0 2000 0 0 2000 0 2000 -2000 0 -2000 0 0
-2000z m2368 828 l3 -78 79 0 80 0 1 65 c1 36 2 71 3 78 1 9 29 12 106 12
l105 0 3 -81 3 -81 63 -7 c152 -15 298 -77 365 -152 58 -67 83 -140 84 -244 0
-130 -43 -221 -131 -282 l-44 -30 49 -17 c155 -53 236 -154 249 -313 17 -192
-57 -362 -196 -450 -60 -38 -178 -74 -286 -88 -49 -6 -103 -13 -121 -16 l-32
-5 -3 -77 -3 -77 -105 0 -105 0 -3 78 -3 77 -79 0 -79 0 -3 -77 -3 -78 -105 0
-105 0 -3 77 -3 78 -162 2 -162 3 -3 93 -3 92 91 0 90 0 0 615 0 615 -90 0
-90 0 0 90 0 90 133 2 c72 1 139 2 147 4 8 1 23 2 33 3 14 1 17 12 17 74 0 41
3 77 7 81 4 4 52 5 107 4 l101 -3 3 -77z m-1048 -538 l0 -170 170 0 170 0 0
-175 0 -175 -170 0 -170 0 0 -170 0 -170 -170 0 -170 0 0 170 0 170 -170 0
-170 0 0 175 0 175 170 0 170 0 0 170 0 170 170 0 170 0 0 -170z"/>
<path d="M2370 2290 l0 -213 143 6 c151 5 229 23 285 67 86 68 92 195 13 270
-57 55 -122 72 -293 78 l-148 4 0 -212z"/>
<path d="M2413 1863 l-43 -4 0 -230 0 -229 128 0 c320 0 466 74 464 236 -1
132 -107 204 -333 224 -104 9 -138 10 -216 3z"/>
<path d="M982 1948 l3 -173 168 -3 167 -3 0 175 0 176 -170 0 -170 0 2 -172z"/>
</g>
</svg>
