<svg width="100%" height="100%" viewBox="0 0 40 40" fill="none" xmlns="http://www.w3.org/2000/svg">
<path d="M20 39.9999C22.6282 40.0063 25.2318 39.4933 27.6611 38.4904C30.0905 37.4876 32.2978 36.0146 34.1562 34.1562C36.0146 32.2978 37.4876 30.0905 38.4904 27.6611C39.4933 25.2318 40.0063 22.6282 39.9999 20C40.0063 17.3718 39.4933 14.7682 38.4904 12.3389C37.4876 9.90951 36.0146 7.70222 34.1562 5.84379C32.2978 3.98536 30.0905 2.51242 27.6611 1.50957C25.2318 0.506723 22.6282 -0.00627068 20 5.98337e-05C17.3718 -0.00637665 14.7681 0.506541 12.3387 1.50935C9.90933 2.51216 7.70199 3.9851 5.84354 5.84355C3.98509 7.702 2.51216 9.90933 1.50935 12.3387C0.506541 14.7682 -0.00637665 17.3718 5.98337e-05 20C-0.00627068 22.6282 0.506718 25.2318 1.50957 27.6611C2.51242 30.0905 3.98537 32.2978 5.84379 34.1562C7.70222 36.0146 9.90951 37.4876 12.3389 38.4904C14.7682 39.4933 17.3718 40.0063 20 39.9999Z" fill="#2775CA"/>
<path d="M25.5001 23.1663C25.5001 20.2496 23.7497 19.2464 20.2497 18.8328C17.7497 18.5 17.2497 17.8328 17.2497 16.6664C17.2497 15.5 18.0833 14.7464 19.7497 14.7464C21.2497 14.7464 22.0833 15.2464 22.5001 16.4968C22.5431 16.6175 22.622 16.7221 22.7263 16.7965C22.8306 16.8709 22.9552 16.9115 23.0833 16.9128H24.4161C24.4933 16.9147 24.57 16.901 24.6417 16.8724C24.7134 16.8438 24.7786 16.8009 24.8332 16.7464C24.8878 16.6919 24.9308 16.6268 24.9595 16.5551C24.9882 16.4835 25.002 16.4067 25.0001 16.3296V16.2496C24.8387 15.3464 24.3836 14.5219 23.7054 13.904C23.0272 13.2862 22.1639 12.9096 21.2497 12.8328V10.8328C21.2497 10.5 21.0001 10.2496 20.5833 10.1664H19.3329C19.0001 10.1664 18.7497 10.416 18.6665 10.8328V12.7528C16.1665 13.0864 14.5866 14.7528 14.5866 16.8328C14.5866 19.5832 16.253 20.6664 19.7529 21.0832C22.0865 21.5 22.8361 21.9999 22.8361 23.3327C22.8361 24.6655 21.6697 25.5831 20.0865 25.5831C17.9193 25.5831 17.1698 24.6663 16.9194 23.4159C16.8394 23.0831 16.5866 22.9159 16.3362 22.9159H14.913C14.8358 22.9142 14.7591 22.9281 14.6875 22.9568C14.6159 22.9856 14.5509 23.0285 14.4964 23.0831C14.4419 23.1377 14.399 23.2028 14.3703 23.2745C14.3417 23.3461 14.3279 23.4228 14.3298 23.4999V23.5799C14.6634 25.6599 15.9969 27.1631 18.7465 27.5799V29.5799C18.7465 29.9127 18.9969 30.1631 19.4129 30.2463H20.6633C20.9969 30.2463 21.2465 29.9967 21.3297 29.5799V27.5799C23.8297 27.1631 25.4969 25.4127 25.4969 23.1631L25.5001 23.1663Z" fill="white"/>
<path d="M15.7497 31.9159C9.24969 29.5831 5.9161 22.3327 8.3329 15.9159C9.58329 12.4159 12.3329 9.74955 15.7497 8.49996C16.0833 8.33276 16.2497 8.08316 16.2497 7.66636V6.49996C16.2497 6.16636 16.0833 5.91596 15.7497 5.83276C15.6697 5.83276 15.5001 5.83276 15.4161 5.91276C7.5001 8.41276 3.1665 16.8295 5.6665 24.7463C6.39276 27.0331 7.6573 29.1122 9.35383 30.8089C11.0504 32.5055 13.1293 33.7702 15.4161 34.4967C15.7497 34.6631 16.0833 34.4967 16.1665 34.1631C16.2465 34.0831 16.2465 33.9967 16.2465 33.8295V32.6631C16.2497 32.4135 16.0001 32.0831 15.7497 31.9159ZM24.5832 5.91597C24.2496 5.74957 23.9161 5.91597 23.8329 6.24956C23.7529 6.32956 23.7529 6.41596 23.7529 6.58316V7.74956C23.7529 8.08316 24.0033 8.41596 24.2529 8.58316C30.7528 10.9159 34.0864 18.1663 31.6696 24.5831C30.4192 28.0831 27.6696 30.7495 24.2529 31.9999C23.9193 32.1663 23.7529 32.4159 23.7529 32.8327V33.9999C23.7529 34.3327 23.9193 34.5831 24.2529 34.6663C24.3329 34.6663 24.5032 34.6663 24.5864 34.5863C32.5064 32.0863 36.836 23.6695 34.336 15.7527C33.6121 13.4554 32.3496 11.3643 30.6536 9.65373C28.9577 7.9432 26.8775 6.66278 24.5864 5.91916L24.5832 5.91597Z" fill="white"/>
</svg>
