<svg width="100%" height="100%" viewBox="0 0 40 40" fill="none" xmlns="http://www.w3.org/2000/svg">
<path d="M20 40C31.0457 40 40 31.0457 40 20C40 8.9543 31.0457 0 20 0C8.9543 0 0 8.9543 0 20C0 31.0457 8.9543 40 20 40Z" fill="#50AF95"/>
<path fill-rule="evenodd" clip-rule="evenodd" d="M11.1098 7.91813L5.9949 18.6619C5.97544 18.7019 5.96928 18.747 5.97731 18.7907C5.98533 18.8345 6.00714 18.8745 6.03953 18.9049L19.8536 32.1421C19.8927 32.1799 19.945 32.2011 19.9995 32.2011C20.0539 32.2011 20.1062 32.1799 20.1453 32.1421L33.9594 18.9057C33.9917 18.8752 34.0134 18.8352 34.0214 18.7915C34.0294 18.7479 34.0233 18.7027 34.004 18.6628L28.8891 7.91895C28.8725 7.88293 28.846 7.85243 28.8126 7.83104C28.7792 7.80966 28.7403 7.79829 28.7007 7.79829H11.2999C11.26 7.7978 11.2208 7.80885 11.1871 7.83011C11.1534 7.85137 11.1265 7.88194 11.1098 7.91813Z" fill="#50AF95"/>
<path fill-rule="evenodd" clip-rule="evenodd" d="M21.7752 21.2678C21.676 21.2752 21.1636 21.3058 20.0206 21.3058C19.1116 21.3058 18.4661 21.2785 18.2397 21.2678C14.7264 21.1132 12.1041 20.5016 12.1041 19.7694C12.1041 19.0372 14.7264 18.4264 18.2397 18.2694V20.6587C18.4694 20.6752 19.1273 20.714 20.0363 20.714C21.1273 20.714 21.6735 20.6686 21.7719 20.6595V18.2711C25.2777 18.4273 27.8942 19.0388 27.8942 19.7694C27.8942 20.5 25.2785 21.1116 21.7719 21.2669L21.7752 21.2678ZM21.7752 18.024V15.8859H26.6644V12.6256H13.3471V15.8859H18.2388V18.0231C14.2628 18.2058 11.2727 18.9934 11.2727 19.9372C11.2727 20.881 14.2628 21.6678 18.2388 21.8512V28.7025H21.7744V21.8463C25.7413 21.6636 28.7264 20.8768 28.7264 19.9339C28.7264 18.9909 25.7438 18.2041 21.7744 18.0207L21.7752 18.024Z" fill="white"/>
</svg>
