<svg width="100%" height="100%" viewBox="0 0 40 40" fill="none" xmlns="http://www.w3.org/2000/svg">
<path d="M20 40C31.0457 40 40 31.0457 40 20C40 8.95431 31.0457 0 20 0C8.9543 0 0 8.95431 0 20C0 31.0457 8.9543 40 20 40Z" fill="white"/>
<path d="M32.6152 8.39437L31.5168 9.49277C34.138 12.3585 35.5915 16.1015 35.5915 19.9852C35.5915 23.8688 34.138 27.6118 31.5168 30.4776L32.6152 31.576C35.5296 28.4145 37.1475 24.2722 37.1475 19.9724C37.1475 15.6726 35.5296 11.5302 32.6152 8.36877V8.39437Z" fill="#5A5564"/>
<path d="M9.51853 8.48956C12.3844 5.8688 16.1274 4.41544 20.0109 4.41544C23.8945 4.41544 27.6374 5.8688 30.5033 8.48956L31.6017 7.39116C28.4403 4.47686 24.2979 2.85889 19.9981 2.85889C15.6984 2.85889 11.556 4.47686 8.39453 7.39116L9.51853 8.48956Z" fill="#5A5564"/>
<path d="M8.48711 30.4887C5.86934 27.6236 4.41783 23.8829 4.41783 20.0019C4.41783 16.121 5.86934 12.3803 8.48711 9.51515L7.38871 8.41675C4.47441 11.5782 2.85645 15.7206 2.85645 20.0203C2.85645 24.3201 4.47441 28.4625 7.38871 31.6239L8.48711 30.4887Z" fill="#5A5564"/>
<path d="M30.4872 31.5032C27.6213 34.124 23.8783 35.5774 19.9948 35.5774C16.1113 35.5774 12.3683 34.124 9.50242 31.5032L8.40723 32.6C11.5687 35.5141 15.7108 37.1319 20.0104 37.1319C24.31 37.1319 28.4522 35.5141 31.6136 32.6L30.4872 31.5032Z" fill="#5A5564"/>
<path d="M26.9337 16.3352C26.7137 14.0432 24.7369 13.2744 22.2369 13.0408V9.88477H20.3033V12.9816H18.7585V9.88477H16.8385V13.0624H12.9185V15.1312C12.9185 15.1312 14.3465 15.1056 14.3241 15.1312C14.5815 15.1025 14.84 15.1751 15.0449 15.3334C15.2499 15.4918 15.3852 15.7236 15.4225 15.98V24.68C15.4171 24.7705 15.3936 24.859 15.3534 24.9402C15.3131 25.0214 15.2569 25.0937 15.1881 25.1528C15.1208 25.213 15.042 25.259 14.9565 25.2878C14.871 25.3167 14.7805 25.3279 14.6905 25.3208C14.7161 25.3432 13.2849 25.3208 13.2849 25.3208L12.9185 27.6312H16.8073V30.86H18.7401V27.6784H20.2849V30.8456H22.2217V27.6528C25.4873 27.4552 27.7641 26.6496 28.0497 23.5928C28.2801 21.1328 27.1233 20.0344 25.2745 19.5928C26.3953 19.0368 27.0913 18.012 26.9337 16.3352ZM24.2249 23.2104C24.2249 25.6104 20.1097 25.3376 18.7993 25.3376V21.08C20.1097 21.08 24.2249 20.7032 24.2249 23.2104ZM23.3273 17.2104C23.3273 19.4072 19.8937 19.14 18.8025 19.14V15.2664C19.8937 15.2624 23.3273 14.92 23.3273 17.2064V17.2104Z" fill="#F09242"/>
<path d="M19.996 40C8.95039 40 -0.00399866 31.04 1.3396e-06 20C0.00400134 8.96 8.96 0 20 0C31.04 0 39.9944 8.9536 40 20C40.0056 31.0464 31.0488 40 20 40H19.996ZM19.996 1.5592C9.81759 1.568 1.5728 9.8256 1.5816 20.004C1.5904 30.1824 9.84719 38.4264 20.0256 38.4184C30.204 38.4104 38.436 30.1664 38.44 19.996C38.444 9.8256 30.2 1.564 20.0184 1.5592H19.996Z" fill="#282138"/>
</svg>
