<svg width="40" height="40" viewBox="0 0 40 40" fill="none" xmlns="http://www.w3.org/2000/svg">
<rect width="40" height="40" rx="20" fill="#2CC295" fill-opacity="0.5"/>
<circle cx="19.5" cy="19.5" r="17" fill="#2FA98C"/>
<mask id="mask0_4374_33154" style="mask-type:alpha" maskUnits="userSpaceOnUse" x="2" y="2" width="35" height="35">
<circle cx="19.5" cy="19.5" r="17" fill="#162E2F"/>
</mask>
<g mask="url(#mask0_4374_33154)">
<path d="M0.234375 7.6001H22.3344V11.7084L24.8844 15.2501L25.451 23.1834L22.3344 27.9293V31.9668H0.234375V7.6001Z" fill="url(#paint0_linear_4374_33154)"/>
<rect x="0.234375" y="11.5669" width="17" height="16.4333" fill="url(#paint1_linear_4374_33154)"/>
</g>
<path d="M30.1198 16.2101C29.8415 13.2987 27.3368 12.3255 24.1643 12.0267V8.01367H21.7113V11.949H19.7542V8.01367H17.3221V12.0516H12.3526V14.6772C12.3526 14.6772 14.1625 14.6443 14.1346 14.6772C14.4608 14.6415 14.7881 14.734 15.0476 14.9351C15.3071 15.1363 15.4787 15.4305 15.5261 15.7559V26.8119C15.5108 27.0433 15.4044 27.2592 15.2303 27.412C15.0562 27.5648 14.8287 27.642 14.5978 27.6267C14.6306 27.6546 12.8157 27.6267 12.8157 27.6267L12.3516 30.562H17.2764V34.6647H19.7234V30.6218H21.6824V34.6458H24.1384V30.5899C28.2791 30.3379 31.1664 29.315 31.5282 25.4304C31.8204 22.3049 30.3534 20.9084 28.0097 20.3506C29.438 19.6434 30.3196 18.3406 30.1198 16.2101ZM26.6809 24.9464C26.6809 27.9982 21.4638 27.6496 19.802 27.6496V22.2351C21.4678 22.2391 26.6809 21.76 26.6809 24.9464ZM25.5478 17.3177C25.5478 20.1066 21.1934 19.7689 19.8099 19.7689V14.8475C21.1934 14.8475 25.5478 14.4102 25.5478 17.3177Z" fill="black"/>
<circle cx="30" cy="30" r="4.5" fill="black" stroke="black"/>
<path d="M29.2389 32H28L29.2222 29.961L28.1444 28H29.3667L30.0278 29.3203L30.75 28H31.9222L30.8 30L32 32H30.7556L30 30.624L29.2389 32Z" fill="#2FA98C"/>
<defs>
<linearGradient id="paint0_linear_4374_33154" x1="-19.8823" y1="18.5231" x2="23.751" y2="18.5231" gradientUnits="userSpaceOnUse">
<stop stop-color="#07382C"/>
<stop offset="1" stop-color="#72F1D3"/>
</linearGradient>
<linearGradient id="paint1_linear_4374_33154" x1="-2.03229" y1="18.9336" x2="18.9344" y2="18.9336" gradientUnits="userSpaceOnUse">
<stop stop-color="#07382C"/>
<stop offset="1" stop-color="#72F1D3"/>
</linearGradient>
</defs>
</svg>
