<svg width="40" height="40" viewBox="0 0 40 40" fill="none" xmlns="http://www.w3.org/2000/svg">
<rect width="40" height="40" rx="20" fill="#2CC295" fill-opacity="0.5"/>
<g clip-path="url(#clip0_4392_33315)">
<path d="M37.4563 19.9782C37.4563 29.6311 29.6311 37.4563 19.9782 37.4563C10.3253 37.4563 2.5 29.6311 2.5 19.9782C2.5 10.3253 10.3253 2.5 19.9782 2.5C29.6311 2.5 37.4563 10.3253 37.4563 19.9782Z" fill="#2FA98C"/>
<path d="M36.5195 19.9779C36.5193 10.8427 29.1132 3.4371 19.9779 3.4371C10.8428 3.43723 3.43723 10.8428 3.4371 19.9779C3.4371 29.1132 10.8427 36.5193 19.9779 36.5195V37.4565L19.5272 37.4509C10.0827 37.2117 2.5 29.48 2.5 19.9779C2.50013 10.3252 10.3252 2.50013 19.9779 2.5C29.6308 2.5 37.4564 10.3251 37.4565 19.9779L37.4509 20.4294C37.2115 29.8738 29.48 37.4565 19.9779 37.4565V36.5195C29.1133 36.5195 36.5195 29.1133 36.5195 19.9779Z" fill="#2FA98C"/>
<path d="M12.4334 11.3093H12.4334C12.1746 11.3093 11.9648 11.5191 11.9648 11.7779V14.3083C11.9648 14.5671 12.1746 14.7768 12.4334 14.7768C12.6922 14.7768 12.902 14.5671 12.902 14.3083V11.7779C12.902 11.5191 12.6922 11.3093 12.4334 11.3093Z" fill="white"/>
<path d="M12.4334 25.1794H12.4334C12.1746 25.1794 11.9648 25.3892 11.9648 25.648V28.1784C11.9648 28.4372 12.1746 28.647 12.4334 28.647C12.6922 28.647 12.902 28.4372 12.902 28.1784V25.648C12.902 25.3892 12.6922 25.1794 12.4334 25.1794Z" fill="white"/>
<path d="M14.0272 11.3093H14.0272C13.7684 11.3093 13.5586 11.5191 13.5586 11.7779V14.3083C13.5586 14.5671 13.7684 14.7768 14.0272 14.7768C14.286 14.7768 14.4958 14.5671 14.4958 14.3083V11.7779C14.4958 11.5191 14.286 11.3093 14.0272 11.3093Z" fill="white"/>
<path d="M14.0272 25.1794H14.0272C13.7684 25.1794 13.5586 25.3892 13.5586 25.648V28.1784C13.5586 28.4372 13.7684 28.647 14.0272 28.647C14.286 28.647 14.4958 28.4372 14.4958 28.1784V25.648C14.4958 25.3892 14.286 25.1794 14.0272 25.1794Z" fill="white"/>
<path d="M15.6209 11.3093H15.6209C15.3621 11.3093 15.1523 11.5191 15.1523 11.7779V28.1784C15.1523 28.4371 15.3621 28.6469 15.6209 28.6469C15.8797 28.6469 16.0895 28.4371 16.0895 28.1784V11.7779C16.0895 11.5191 15.8797 11.3093 15.6209 11.3093Z" fill="white"/>
<path d="M15.6209 7.18579H15.6209C15.3621 7.18579 15.1523 7.39558 15.1523 7.65437V10.1847C15.1523 10.4435 15.3621 10.6533 15.6209 10.6533C15.8797 10.6533 16.0895 10.4435 16.0895 10.1847V7.65437C16.0895 7.39558 15.8797 7.18579 15.6209 7.18579Z" fill="white"/>
<path d="M15.6209 29.303H15.6209C15.3621 29.303 15.1523 29.5128 15.1523 29.7716V32.3019C15.1523 32.5607 15.3621 32.7705 15.6209 32.7705C15.8797 32.7705 16.0895 32.5607 16.0895 32.3019V29.7716C16.0895 29.5128 15.8797 29.303 15.6209 29.303Z" fill="white"/>
<path d="M17.2127 11.3093H17.2127C16.9539 11.3093 16.7441 11.5191 16.7441 11.7779V28.1784C16.7441 28.4371 16.9539 28.6469 17.2127 28.6469C17.4715 28.6469 17.6813 28.4371 17.6813 28.1784V11.7779C17.6813 11.5191 17.4715 11.3093 17.2127 11.3093Z" fill="white"/>
<path d="M17.2127 7.18579H17.2127C16.9539 7.18579 16.7441 7.39558 16.7441 7.65437V10.1847C16.7441 10.4435 16.9539 10.6533 17.2127 10.6533C17.4715 10.6533 17.6813 10.4435 17.6813 10.1847V7.65437C17.6813 7.39558 17.4715 7.18579 17.2127 7.18579Z" fill="white"/>
<path d="M17.2127 29.303H17.2127C16.9539 29.303 16.7441 29.5128 16.7441 29.7716V32.3019C16.7441 32.5607 16.9539 32.7705 17.2127 32.7705C17.4715 32.7705 17.6813 32.5607 17.6813 32.3019V29.7716C17.6813 29.5128 17.4715 29.303 17.2127 29.303Z" fill="white"/>
<path d="M18.8065 11.3093H18.8065C18.5477 11.3093 18.3379 11.5191 18.3379 11.7779V14.3083C18.3379 14.5671 18.5477 14.7768 18.8065 14.7768C19.0653 14.7768 19.2751 14.5671 19.2751 14.3083V11.7779C19.2751 11.5191 19.0653 11.3093 18.8065 11.3093Z" fill="white"/>
<path d="M18.8065 25.1794H18.8065C18.5477 25.1794 18.3379 25.3892 18.3379 25.648V28.1784C18.3379 28.4372 18.5477 28.647 18.8065 28.647C19.0653 28.647 19.2751 28.4372 19.2751 28.1784V25.648C19.2751 25.3892 19.0653 25.1794 18.8065 25.1794Z" fill="white"/>
<path d="M18.8065 18.2444H18.8065C18.5477 18.2444 18.3379 18.4542 18.3379 18.713V21.2433C18.3379 21.5021 18.5477 21.7119 18.8065 21.7119C19.0653 21.7119 19.2751 21.5021 19.2751 21.2433V18.713C19.2751 18.4542 19.0653 18.2444 18.8065 18.2444Z" fill="white"/>
<path d="M20.4002 11.3093H20.4002C20.1414 11.3093 19.9316 11.5191 19.9316 11.7779V14.3083C19.9316 14.5671 20.1414 14.7768 20.4002 14.7768C20.659 14.7768 20.8688 14.5671 20.8688 14.3083V11.7779C20.8688 11.5191 20.659 11.3093 20.4002 11.3093Z" fill="white"/>
<path d="M20.4002 25.1794H20.4002C20.1414 25.1794 19.9316 25.3892 19.9316 25.648V28.1784C19.9316 28.4372 20.1414 28.647 20.4002 28.647C20.659 28.647 20.8688 28.4372 20.8688 28.1784V25.648C20.8688 25.3892 20.659 25.1794 20.4002 25.1794Z" fill="white"/>
<path d="M20.4002 18.2444H20.4002C20.1414 18.2444 19.9316 18.4542 19.9316 18.713V21.2433C19.9316 21.5021 20.1414 21.7119 20.4002 21.7119C20.659 21.7119 20.8688 21.5021 20.8688 21.2433V18.713C20.8688 18.4542 20.659 18.2444 20.4002 18.2444Z" fill="white"/>
<path d="M21.992 7.18579H21.992C21.7332 7.18579 21.5234 7.39558 21.5234 7.65437V10.1847C21.5234 10.4435 21.7332 10.6533 21.992 10.6533C22.2508 10.6533 22.4606 10.4435 22.4606 10.1847V7.65437C22.4606 7.39558 22.2508 7.18579 21.992 7.18579Z" fill="white"/>
<path d="M21.992 29.303H21.992C21.7332 29.303 21.5234 29.5128 21.5234 29.7716V32.3019C21.5234 32.5607 21.7332 32.7705 21.992 32.7705C22.2508 32.7705 22.4606 32.5607 22.4606 32.3019V29.7716C22.4606 29.5128 22.2508 29.303 21.992 29.303Z" fill="white"/>
<path d="M21.992 11.3093H21.992C21.7332 11.3093 21.5234 11.5191 21.5234 11.7779V14.3083C21.5234 14.5671 21.7332 14.7768 21.992 14.7768C22.2508 14.7768 22.4606 14.5671 22.4606 14.3083V11.7779C22.4606 11.5191 22.2508 11.3093 21.992 11.3093Z" fill="white"/>
<path d="M21.992 25.1794H21.992C21.7332 25.1794 21.5234 25.3892 21.5234 25.648V28.1784C21.5234 28.4372 21.7332 28.647 21.992 28.647C22.2508 28.647 22.4606 28.4372 22.4606 28.1784V25.648C22.4606 25.3892 22.2508 25.1794 21.992 25.1794Z" fill="white"/>
<path d="M21.992 18.2444H21.992C21.7332 18.2444 21.5234 18.4542 21.5234 18.713V21.2433C21.5234 21.5021 21.7332 21.7119 21.992 21.7119C22.2508 21.7119 22.4606 21.5021 22.4606 21.2433V18.713C22.4606 18.4542 22.2508 18.2444 21.992 18.2444Z" fill="white"/>
<path d="M23.5858 11.3093H23.5858C23.327 11.3093 23.1172 11.5191 23.1172 11.7779V14.9643C23.1172 15.2231 23.327 15.4329 23.5858 15.4329C23.8446 15.4329 24.0544 15.2231 24.0544 14.9643V11.7779C24.0544 11.5191 23.8446 11.3093 23.5858 11.3093Z" fill="white"/>
<path d="M23.5858 24.5234H23.5858C23.327 24.5234 23.1172 24.7332 23.1172 24.992V28.1784C23.1172 28.4372 23.327 28.647 23.5858 28.647C23.8446 28.647 24.0544 28.4372 24.0544 28.1784V24.992C24.0544 24.7332 23.8446 24.5234 23.5858 24.5234Z" fill="white"/>
<path d="M23.5858 7.18579H23.5858C23.327 7.18579 23.1172 7.39558 23.1172 7.65437V10.1847C23.1172 10.4435 23.327 10.6533 23.5858 10.6533C23.8446 10.6533 24.0544 10.4435 24.0544 10.1847V7.65437C24.0544 7.39558 23.8446 7.18579 23.5858 7.18579Z" fill="white"/>
<path d="M23.5858 29.303H23.5858C23.327 29.303 23.1172 29.5128 23.1172 29.7716V32.3019C23.1172 32.5607 23.327 32.7705 23.5858 32.7705C23.8446 32.7705 24.0544 32.5607 24.0544 32.3019V29.7716C24.0544 29.5128 23.8446 29.303 23.5858 29.303Z" fill="white"/>
<path d="M23.5858 17.5884H23.5858C23.327 17.5884 23.1172 17.7982 23.1172 18.057V21.8994C23.1172 22.1581 23.327 22.3679 23.5858 22.3679C23.8446 22.3679 24.0544 22.1581 24.0544 21.8994V18.057C24.0544 17.7982 23.8446 17.5884 23.5858 17.5884Z" fill="white"/>
<path d="M25.1795 11.3093H25.1795C24.9207 11.3093 24.7109 11.5191 24.7109 11.7779V28.1784C24.7109 28.4371 24.9207 28.6469 25.1795 28.6469C25.4383 28.6469 25.6481 28.4371 25.6481 28.1784V11.7779C25.6481 11.5191 25.4383 11.3093 25.1795 11.3093Z" fill="white"/>
<path d="M27.2419 13.5118C27.2419 13.253 27.0321 13.0432 26.7733 13.0432C26.5145 13.0432 26.3047 13.253 26.3047 13.5118V26.4447C26.3047 26.7035 26.5145 26.9133 26.7733 26.9133C27.0321 26.9133 27.2419 26.7035 27.2419 26.4447V13.5118Z" fill="white"/>
<path d="M28.8356 15.2454C28.8356 14.9866 28.6258 14.7769 28.367 14.7769C28.1082 14.7769 27.8984 14.9866 27.8984 15.2454V17.7758C27.8984 18.0346 28.1082 18.2444 28.367 18.2444C28.6258 18.2444 28.8356 18.0346 28.8356 17.7758V15.2454Z" fill="white"/>
<path d="M28.8356 22.1805C28.8356 21.9217 28.6258 21.7119 28.367 21.7119C28.1082 21.7119 27.8984 21.9217 27.8984 22.1805V24.7109C27.8984 24.9696 28.1082 25.1794 28.367 25.1794C28.6258 25.1794 28.8356 24.9696 28.8356 24.7109V22.1805Z" fill="white"/>
</g>
<circle cx="30" cy="30" r="4.5" fill="#063225" stroke="#063225"/>
<path d="M29.2389 32H28L29.2222 29.961L28.1444 28H29.3667L30.0278 29.3203L30.75 28H31.9222L30.8 30L32 32H30.7556L30 30.624L29.2389 32Z" fill="white"/>
<defs>
<clipPath id="clip0_4392_33315">
<rect width="35" height="35" fill="white" transform="translate(2.5 2.5)"/>
</clipPath>
</defs>
</svg>
