<svg width="40" height="40" viewBox="0 0 40 40" fill="none" xmlns="http://www.w3.org/2000/svg">
<rect width="40" height="40" rx="20" fill="#2CC295" fill-opacity="0.5"/>
<g clip-path="url(#clip0_4392_33314)">
<circle cx="20" cy="20" r="17.5" fill="#2FA98C"/>
<path d="M36.5778 19.9999C36.5778 20.2716 36.5714 20.5424 36.5576 20.8132C36.5447 21.084 36.5244 21.3548 36.4977 21.6246C36.471 21.8945 36.4378 22.1635 36.3982 22.4324C36.3586 22.7004 36.3116 22.9685 36.2591 23.2337C36.2066 23.499 36.1468 23.7642 36.0804 24.0277C36.0141 24.2911 35.9423 24.5527 35.8631 24.8115C35.7839 25.0712 35.6991 25.3291 35.6079 25.5842C35.5168 25.8394 35.4191 26.0927 35.3151 26.3432C35.211 26.5937 35.1014 26.8415 34.9853 27.0874C34.8693 27.3324 34.7477 27.5746 34.6197 27.8141C34.4916 28.0536 34.3581 28.2894 34.219 28.5224C34.0799 28.7554 33.9344 28.9838 33.7833 29.2095C33.6323 29.4352 33.4766 29.6571 33.3145 29.8745C33.1533 30.0928 32.9857 30.3065 32.8135 30.5165C32.6412 30.7265 32.4644 30.9319 32.282 31.1327C32.0997 31.3335 31.9127 31.5306 31.7211 31.7221C31.5295 31.9137 31.3324 32.1007 31.1316 32.2831C30.9308 32.4654 30.7254 32.6423 30.5154 32.8145C30.3054 32.9867 30.0918 33.1535 29.8735 33.3156C29.6552 33.4777 29.4341 33.6333 29.2085 33.7844C28.9828 33.9354 28.7535 34.08 28.5214 34.22C28.2893 34.36 28.0526 34.4936 27.8131 34.6207C27.5736 34.7478 27.3314 34.8703 27.0864 34.9863C26.8414 35.1024 26.5927 35.212 26.3422 35.3161C26.0916 35.4202 25.8383 35.5178 25.5832 35.609C25.3281 35.7002 25.0702 35.7858 24.8104 35.8641C24.5507 35.9433 24.2891 36.0152 24.0266 36.0815C23.7632 36.1478 23.4989 36.2067 23.2327 36.2602C22.9665 36.3127 22.6994 36.3596 22.4304 36.3992C22.1624 36.4388 21.8926 36.472 21.6227 36.4987C21.3528 36.5254 21.082 36.5457 20.8112 36.5586C20.5404 36.5715 20.2687 36.5789 19.9979 36.5789C19.7272 36.5789 19.4554 36.5724 19.1847 36.5586C18.9139 36.5457 18.6431 36.5254 18.3732 36.4987C18.1033 36.472 17.8344 36.4388 17.5654 36.3992C17.2974 36.3596 17.0294 36.3127 16.7641 36.2602C16.4989 36.2077 16.2336 36.1478 15.9702 36.0815C15.7068 36.0152 15.4452 35.9433 15.1864 35.8641C14.9276 35.7849 14.6687 35.7002 14.4136 35.609C14.1585 35.5178 13.9052 35.4202 13.6547 35.3161C13.4041 35.212 13.1564 35.1024 12.9104 34.9863C12.6645 34.8703 12.4232 34.7487 12.1837 34.6207C11.9443 34.4927 11.7085 34.3591 11.4754 34.22C11.2424 34.081 11.014 33.9354 10.7883 33.7844C10.5627 33.6333 10.3407 33.4777 10.1233 33.3156C9.90597 33.1535 9.69137 32.9867 9.48229 32.8145C9.27321 32.6423 9.0669 32.4654 8.86611 32.2831C8.66532 32.1007 8.46821 31.9137 8.27663 31.7221C8.08505 31.5306 7.89808 31.3335 7.71571 31.1327C7.53334 30.9319 7.3565 30.7265 7.18426 30.5165C7.01203 30.3065 6.84532 30.0928 6.68321 29.8745C6.52203 29.6562 6.36545 29.4352 6.2144 29.2095C6.06334 28.9838 5.91874 28.7545 5.77874 28.5224C5.63966 28.2894 5.50519 28.0536 5.37808 27.8141C5.25005 27.5746 5.12847 27.3324 5.01242 27.0874C4.89637 26.8424 4.78676 26.5937 4.68268 26.3432C4.57861 26.0927 4.48097 25.8394 4.38979 25.5842C4.29861 25.3291 4.21295 25.0712 4.13466 24.8115C4.05545 24.5517 3.98361 24.2902 3.91729 24.0277C3.85097 23.7642 3.79203 23.4999 3.73861 23.2337C3.68611 22.9675 3.63913 22.7004 3.59953 22.4324C3.55992 22.1644 3.52676 21.8945 3.50005 21.6246C3.47334 21.3548 3.45308 21.084 3.44019 20.8132C3.42729 20.5424 3.41992 20.2707 3.41992 19.9999C3.41992 19.7291 3.42637 19.4574 3.44019 19.1866C3.45308 18.9158 3.47334 18.645 3.50005 18.3752C3.52676 18.1053 3.55992 17.8363 3.59953 17.5674C3.63913 17.2994 3.68611 17.0314 3.73861 16.7661C3.79111 16.4999 3.85097 16.2356 3.91729 15.9721C3.98361 15.7087 4.05545 15.4471 4.13466 15.1883C4.21387 14.9286 4.29861 14.6707 4.38979 14.4156C4.48097 14.1604 4.57861 13.9071 4.68268 13.6566C4.78676 13.4061 4.89637 13.1583 5.01242 12.9124C5.12847 12.6665 5.25005 12.4252 5.37808 12.1857C5.50611 11.9462 5.63966 11.7104 5.77874 11.4774C5.91782 11.2444 6.06334 11.016 6.2144 10.7903C6.36545 10.5646 6.52111 10.3427 6.68321 10.1253C6.8444 9.90701 7.01203 9.69332 7.18426 9.48424C7.3565 9.27424 7.53334 9.06885 7.71571 8.86806C7.89808 8.66727 8.08505 8.47017 8.27663 8.27859C8.46821 8.08701 8.66532 7.90003 8.86611 7.71766C9.0669 7.5353 9.27229 7.35845 9.48229 7.18622C9.69229 7.01398 9.90597 6.84727 10.1233 6.68516C10.3416 6.52398 10.5627 6.3674 10.7883 6.21635C11.014 6.0653 11.2433 5.92069 11.4754 5.78069C11.7085 5.64161 11.9443 5.50714 12.1837 5.38003C12.4232 5.25201 12.6654 5.13043 12.9104 5.01438C13.1554 4.89832 13.4041 4.78872 13.6547 4.68464C13.9052 4.58056 14.1585 4.48293 14.4136 4.39174C14.6687 4.30056 14.9266 4.2149 15.1864 4.13661C15.4461 4.0574 15.7077 3.98556 15.9702 3.91924C16.2327 3.85293 16.4979 3.79398 16.7641 3.74056C17.0303 3.68806 17.2974 3.64109 17.5654 3.60148C17.8335 3.56187 18.1033 3.52872 18.3732 3.50201C18.6431 3.4753 18.9139 3.45503 19.1847 3.44214C19.4554 3.42924 19.7272 3.42188 19.9979 3.42188C20.2687 3.42188 20.5404 3.42832 20.8112 3.44214C21.082 3.45503 21.3528 3.4753 21.6227 3.50201C21.8926 3.52872 22.1615 3.56187 22.4304 3.60148C22.6985 3.64109 22.9665 3.68806 23.2327 3.74056C23.4989 3.79306 23.7632 3.85293 24.0266 3.91924C24.2901 3.98556 24.5516 4.0574 24.8104 4.13661C25.0702 4.21582 25.3281 4.30056 25.5832 4.39174C25.8383 4.48293 26.0916 4.58056 26.3422 4.68464C26.5927 4.78872 26.8404 4.89832 27.0864 5.01438C27.3314 5.13043 27.5736 5.25201 27.8131 5.38003C28.0526 5.50806 28.2883 5.64161 28.5214 5.78069C28.7544 5.91977 28.9828 6.0653 29.2085 6.21635C29.4341 6.3674 29.6561 6.52306 29.8735 6.68516C30.0918 6.84635 30.3054 7.01398 30.5154 7.18622C30.7254 7.35845 30.9308 7.5353 31.1316 7.71766C31.3324 7.90003 31.5295 8.08701 31.7211 8.27859C31.9127 8.47017 32.0997 8.66727 32.282 8.86806C32.4644 9.06885 32.6412 9.27424 32.8135 9.48424C32.9857 9.69424 33.1524 9.90793 33.3145 10.1253C33.4757 10.3436 33.6323 10.5646 33.7833 10.7903C33.9344 11.016 34.079 11.2453 34.219 11.4774C34.3581 11.7104 34.4926 11.9462 34.6197 12.1857C34.7477 12.4252 34.8693 12.6674 34.9853 12.9124C35.1014 13.1574 35.211 13.4061 35.3151 13.6566C35.4191 13.9071 35.5168 14.1604 35.6079 14.4156C35.6991 14.6707 35.7848 14.9286 35.8631 15.1883C35.9414 15.4481 36.0141 15.7096 36.0804 15.9721C36.1468 16.2356 36.2057 16.4999 36.2591 16.7661C36.3116 17.0323 36.3586 17.2994 36.3982 17.5674C36.4378 17.8354 36.471 18.1053 36.4977 18.3752C36.5244 18.645 36.5447 18.9158 36.5576 19.1866C36.5704 19.4574 36.5778 19.7291 36.5778 19.9999Z" stroke="#2FA98C" stroke-width="1.68421"/>
<path fill-rule="evenodd" clip-rule="evenodd" d="M22.4052 18.6719C23.4967 18.6903 25.8739 18.7299 25.8739 17.0637C25.8748 15.3598 23.5897 15.4196 22.4706 15.4491C22.3444 15.4528 22.233 15.4555 22.1418 15.4555V18.67C22.2173 18.67 22.3057 18.6719 22.4052 18.6728V18.6719ZM22.4513 23.8371C23.7582 23.8555 26.6144 23.897 26.6144 22.0632H26.6126C26.6126 20.187 23.8651 20.2524 22.5268 20.2837C22.3785 20.2874 22.2477 20.2901 22.139 20.2901V23.8334C22.2284 23.8334 22.3334 23.8353 22.4503 23.8371H22.4513ZM24.9768 13.6171C27.0372 13.7995 28.6684 14.4396 28.8489 16.3462C28.9834 17.7407 28.405 18.5761 27.4802 19.0532C29.0027 19.4244 29.9569 20.3362 29.7672 22.3828C29.5342 24.923 27.6552 25.6037 24.9731 25.7584V26.9586H23.3778V25.7944C22.9643 25.7944 22.5406 25.7907 22.1031 25.7815V26.9586H20.5088V25.7529C20.1357 25.7502 18.4161 25.7428 18.0293 25.7428L18.0413 24.3446H19.3722V15.0475L18.0413 15.0401L18.0459 13.6217C18.0459 13.6217 20.168 13.6236 20.5125 13.6171V12.3967H22.1068V13.5655C22.5332 13.5573 22.9615 13.549 23.3806 13.549V12.3976H24.9759V13.619L24.9768 13.6171Z" fill="white"/>
<path d="M14.2416 15.7871H11.6719V18.379H14.2416V15.7871Z" fill="white"/>
<path d="M16.8119 18.3789H14.2422V20.9707H16.8119V18.3789Z" fill="white"/>
<path d="M11.6713 18.3789H9.10156V20.9707H11.6713V18.3789Z" fill="white"/>
<path d="M14.2416 20.9709H11.6719V23.5628H14.2416V20.9709Z" fill="white"/>
</g>
<circle cx="30" cy="30" r="4.5" fill="#063225" stroke="#063225"/>
<path d="M29.2389 32H28L29.2222 29.961L28.1444 28H29.3667L30.0278 29.3203L30.75 28H31.9222L30.8 30L32 32H30.7556L30 30.624L29.2389 32Z" fill="white"/>
<defs>
<clipPath id="clip0_4392_33314">
<rect width="35" height="35" fill="white" transform="translate(2.5 2.5)"/>
</clipPath>
</defs>
</svg>
