<svg width="40" height="40" viewBox="0 0 40 40" fill="none" xmlns="http://www.w3.org/2000/svg">
<rect width="40" height="40" rx="20" fill="#2CC295" fill-opacity="0.5"/>
<ellipse cx="20" cy="19.9999" rx="17.5" ry="17.5004" fill="#2FA98C"/>
<path d="M31.0364 9.84411L30.0762 10.8044C32.3691 13.3123 33.6406 16.5874 33.6406 19.9855C33.6406 23.3836 32.3691 26.6587 30.0762 29.1666L31.0364 30.1269C33.5853 27.3608 35.0004 23.737 35.0004 19.9755C35.0004 16.2141 33.5853 12.5903 31.0364 9.82422V9.84411Z" fill="black"/>
<path d="M10.826 9.92815C13.3337 7.6349 16.6088 6.36316 20.0069 6.36316C23.4051 6.36316 26.6802 7.6349 29.1879 9.92815L30.1481 8.96789C27.3819 6.4176 23.7573 5.00171 19.9949 5.00171C16.2326 5.00171 12.608 6.4176 9.8418 8.96789L10.826 9.92815Z" fill="black"/>
<path d="M9.92828 29.1818C7.63765 26.6747 6.36752 23.4015 6.36752 20.0055C6.36752 16.6095 7.63765 13.3363 9.92828 10.8292L8.96804 9.8689C6.41781 12.6351 5.00195 16.2598 5.00195 20.0223C5.00195 23.7847 6.41781 27.4094 8.96804 30.1757L9.92828 29.1818Z" fill="black"/>
<path d="M29.1775 30.0645C26.6698 32.3577 23.3947 33.6294 19.9966 33.6294C16.5985 33.6294 13.3234 32.3577 10.8157 30.0645L9.85547 31.0247C12.6217 33.575 16.2462 34.9909 20.0086 34.9909C23.771 34.9909 27.3956 33.575 30.1618 31.0247L29.1775 30.0645Z" fill="black"/>
<path d="M26.0702 16.793C25.8781 14.7881 24.1497 14.1179 21.9603 13.9122V11.1487H20.2676V13.8587H18.9171V11.1487H17.2387V13.9293H13.8093V15.7374C13.8093 15.7374 15.0583 15.7147 15.0391 15.7374C15.2642 15.7128 15.49 15.7765 15.6691 15.915C15.8482 16.0535 15.9666 16.2561 15.9993 16.4802V24.0937C15.9887 24.253 15.9153 24.4017 15.7952 24.5069C15.675 24.6121 15.518 24.6653 15.3587 24.6547C15.3813 24.6739 14.1289 24.6547 14.1289 24.6547L13.8086 26.6761H17.2072V29.5013H18.8958V26.7172H20.2477V29.4883H21.9425V26.6953C24.7999 26.5218 26.7924 25.8173 27.042 23.1423C27.2437 20.99 26.2313 20.0283 24.614 19.6442C25.5996 19.1573 26.208 18.2601 26.0702 16.793ZM23.697 22.809C23.697 24.9106 20.0968 24.6705 18.95 24.6705V20.942C20.0995 20.9447 23.697 20.6148 23.697 22.809ZM22.9151 17.5557C22.9151 19.4762 19.9102 19.2437 18.9555 19.2437V15.8546C19.9102 15.8546 22.9151 15.5535 22.9151 17.5557Z" fill="black"/>
<path d="M19.9969 37.5003C10.3321 37.4983 2.5 29.6612 2.5 19.9968C2.5 10.3325 10.3383 2.49951 20.0031 2.49951C29.6679 2.49951 37.4979 10.3339 37.5 19.9968C37.5021 29.6598 29.6679 37.4983 20.0031 37.5003H19.9969ZM19.9969 3.86445C11.0907 3.87131 3.87863 11.0966 3.88411 20.003C3.8896 28.9094 11.1161 36.1217 20.0223 36.1162C28.9285 36.1107 36.1317 28.895 36.1351 19.9975C36.1385 11.1 28.9216 3.87131 20.0161 3.86445H19.9969Z" fill="#3A7466"/>
<circle cx="30" cy="30" r="4.5" fill="black" stroke="black"/>
<path d="M29.2389 32H28L29.2222 29.961L28.1444 28H29.3667L30.0278 29.3203L30.75 28H31.9222L30.8 30L32 32H30.7556L30 30.624L29.2389 32Z" fill="#2FA98C"/>
</svg>
