<svg width="40" height="40" viewBox="0 0 40 40" fill="none" xmlns="http://www.w3.org/2000/svg">
<rect width="40" height="40" rx="20" fill="#2CC295" fill-opacity="0.5"/>
<path d="M36.9764 24.2333C34.6389 33.6084 25.1423 39.3139 15.7651 36.9761C6.39176 34.6388 0.685618 25.1428 3.02416 15.7685C5.36065 6.39233 14.8572 0.686409 24.2315 3.02366C33.6081 5.36091 39.3139 14.858 36.9761 24.2335L36.9763 24.2333H36.9764Z" fill="#2FA98C"/>
<path d="M27.7172 17.5086C28.0655 15.1797 26.2923 13.9278 23.8675 13.0927L24.6541 9.93808L22.7336 9.45958L21.9678 12.5312C21.4629 12.4053 20.9444 12.2866 20.4291 12.169L21.2004 9.07713L19.281 8.59863L18.494 11.7523C18.0762 11.6571 17.6658 11.5631 17.2676 11.4641L17.2699 11.4542L14.6214 10.7929L14.1105 12.8439C14.1105 12.8439 15.5354 13.1705 15.5054 13.1906C16.2831 13.3847 16.4237 13.8994 16.4004 14.3075L15.5043 17.9014C15.5579 17.915 15.6273 17.9346 15.704 17.9654C15.6399 17.9495 15.5717 17.9322 15.501 17.9152L14.2451 22.9498C14.15 23.186 13.9088 23.5406 13.365 23.4059C13.3843 23.4338 11.9691 23.0576 11.9691 23.0576L11.0156 25.2558L13.5149 25.8788C13.9799 25.9953 14.4355 26.1173 14.8842 26.232L14.0895 29.4229L16.0078 29.9014L16.7948 26.7444C17.3189 26.8867 17.8275 27.0179 18.3254 27.1416L17.541 30.2836L19.4616 30.7621L20.2563 27.5773C23.5312 28.197 25.9937 27.9472 27.0302 24.9853C27.8654 22.6007 26.9886 21.2252 25.2657 20.3283C26.5206 20.0389 27.4658 19.2136 27.7179 17.5088L27.7173 17.5084L27.7172 17.5086ZM23.3292 23.661C22.7356 26.0456 18.7202 24.7566 17.4183 24.4333L18.4729 20.206C19.7747 20.531 23.9495 21.1741 23.3292 23.661H23.3292ZM23.9231 17.474C23.3817 19.6431 20.0396 18.5411 18.9554 18.2709L19.9116 14.437C20.9957 14.7072 24.4871 15.2115 23.9233 17.474H23.9231Z" fill="black"/>
<path d="M9.5 29.5V29.2714L9.71359 29.2538C9.98544 29.2538 10.199 29.0165 10.5583 28.6385L11.5 27.6099L10.3932 26.1418C10.2379 25.9484 10.0825 25.7637 9.83981 25.7462L9.59709 25.7286V25.5H12.0049V25.7286L11.7233 25.7637C11.5971 25.7813 11.5 25.7989 11.5 25.8868C11.5 25.9308 11.5583 26.0187 11.6165 26.1066L12.199 26.933L12.7136 26.256C12.7913 26.1505 12.9078 26.0451 12.9078 25.8868C12.9078 25.7901 12.8107 25.7813 12.6845 25.7637L12.4029 25.7286V25.5H14.2573V25.7286L14.034 25.7637C13.8107 25.7901 13.6748 25.9132 13.2476 26.3527L12.4223 27.2582L13.7039 28.8582C13.8592 29.0516 14.0146 29.2363 14.2573 29.2538L14.5 29.2714V29.5H12.0049V29.2714L12.2864 29.2363C12.4612 29.2187 12.5097 29.2011 12.5097 29.1132C12.5097 29.0516 12.4612 28.9813 12.3932 28.8934L11.7233 27.9264L11.1699 28.6912C10.9563 28.9989 10.9466 28.9901 10.9369 29.1132C10.9369 29.2099 11.034 29.2187 11.1602 29.2363L11.4417 29.2714V29.5H9.5Z" fill="#2FA98C"/>
<circle cx="30" cy="30" r="4.5" fill="black" stroke="black"/>
<path d="M29.2389 32H28L29.2222 29.961L28.1444 28H29.3667L30.0278 29.3203L30.75 28H31.9222L30.8 30L32 32H30.7556L30 30.624L29.2389 32Z" fill="#2FA98C"/>
</svg>
