<svg width="1586" height="540" viewBox="0 0 1586 540" fill="none" xmlns="http://www.w3.org/2000/svg">
<path d="M40.154 289.076V329.23H0V289.076H40.154Z" fill="white"/>
<path d="M171.433 329.23H157.797C136.13 329.23 120.003 324.149 109.415 313.988C98.8279 303.826 93.5505 287.503 93.5505 265.016V128.46H127.673V272.982C127.673 281.012 130.001 287.371 134.688 292.059C139.375 296.746 145.734 299.073 153.765 299.073H175.432C183.987 299.073 190.346 296.943 194.509 292.649C198.639 288.355 200.999 283.569 201.524 278.193V128.46H235.647V329.197H203.523V319.954C194.706 326.116 183.987 329.197 171.4 329.197L171.433 329.23Z" fill="white"/>
<path d="M340.047 128.46V138.097C348.34 131.672 359.059 128.46 372.17 128.46H390.625C412.292 128.46 428.419 133.541 439.006 143.702C449.561 153.864 454.871 170.187 454.871 192.674V329.164H420.748V184.676C420.748 176.645 418.388 170.286 413.734 165.598C409.046 160.911 402.687 158.584 394.657 158.584H368.171C359.354 158.584 352.765 160.944 348.504 165.598C344.21 170.286 342.079 175.301 342.079 180.644V329.197H307.957V128.46H340.08H340.047Z" fill="white"/>
<path d="M598.999 228.435L577.332 329.197H539.997L503.875 128.46H537.998L560.878 287.863L587.363 164.615H613.455L637.547 287.863L660.427 128.46H692.55L656.821 329.197H618.273L598.999 228.435Z" fill="white"/>
<path d="M776.037 299.106V158.584H746.733V128.46H808.161V139.31C816.978 132.098 827.697 128.46 840.284 128.46H881.651V160.583H836.285C827.73 160.583 821.305 163.337 817.011 168.811C812.717 174.285 810.455 179.857 810.193 185.462V299.073H853.953V329.197H746.766V299.073H776.07L776.037 299.106Z" fill="white"/>
<path d="M1079.37 326.018C1075.21 323.887 1071.67 320.937 1068.72 317.2C1062.56 325.231 1054.39 329.23 1044.23 329.23H1008.5C988.149 329.23 973.366 325.166 964.155 316.971C954.911 308.809 950.289 294.812 950.289 275.014V266.983C950.289 225.485 969.826 204.769 1008.9 204.769H1058.69V184.709C1058.69 176.415 1056.13 169.991 1051.05 165.435C1045.97 160.878 1038.46 158.617 1028.57 158.617H966.351V128.493H1024.57C1047.84 128.493 1065.05 133.574 1076.16 143.735C1087.27 153.896 1092.81 170.22 1092.81 192.707V289.076C1092.81 293.108 1094.35 296.091 1097.43 298.123C1100.51 300.123 1105.66 301.139 1112.9 301.139V329.23H1090.81C1087.34 329.23 1083.5 328.148 1079.37 326.018ZM1055.48 293.501C1057.61 289.764 1058.69 284.946 1058.69 279.046V234.893H1008.5C1001.56 234.893 995.786 237.155 991.23 241.711C986.674 246.267 984.412 252.003 984.412 258.985V279.046C984.412 285.995 986.018 291.076 989.231 294.288C992.443 297.5 997.524 299.106 1004.47 299.106H1040.2C1048.23 299.106 1053.31 297.238 1055.44 293.501H1055.48Z" fill="white"/>
<path d="M1207.24 128.46V138.097C1215.54 131.672 1226.25 128.46 1239.37 128.46H1253.82C1277.36 128.46 1294.63 133.475 1305.61 143.505C1316.59 153.536 1322.07 169.925 1322.07 192.674V264.951C1322.07 287.437 1316.49 303.761 1305.41 313.922C1294.3 324.084 1277.09 329.164 1253.82 329.164H1209.24V397.41H1175.12V128.46H1207.24ZM1215.67 165.598C1211.37 170.286 1209.24 175.301 1209.24 180.644V299.073H1257.82C1267.72 299.073 1275.23 296.812 1280.31 292.256C1285.39 287.699 1287.94 281.275 1287.94 272.982V184.643C1287.94 176.35 1285.39 169.925 1280.31 165.369C1275.23 160.813 1267.72 158.551 1257.82 158.551H1235.33C1226.52 158.551 1219.93 160.911 1215.67 165.566V165.598Z" fill="white"/>
<path d="M1396.93 51.0038C1404.83 31.7299 1415.88 14.7504 1430.04 0H1465.38C1452.53 15.5371 1443.02 28.5831 1436.86 39.1379C1430.7 49.7254 1426.2 61.5585 1423.42 74.67C1420.6 87.7816 1419.19 104.794 1419.19 125.674V251.741C1419.19 272.621 1420.6 289.633 1423.42 302.745C1426.24 315.856 1430.7 327.722 1436.86 338.277C1443.02 348.832 1452.53 361.91 1465.38 377.415H1430.04C1415.85 362.697 1404.8 345.685 1396.93 326.411C1389.03 307.137 1385.1 281.996 1385.1 250.922V126.461C1385.1 95.419 1389.03 70.2449 1396.93 50.971V51.0038Z" fill="white"/>
<path d="M1573.97 326.411C1566.07 345.685 1555.03 362.664 1540.86 377.415H1505.53C1518.38 361.878 1527.88 348.832 1534.05 338.277C1540.21 327.722 1544.7 315.856 1547.49 302.745C1550.3 289.633 1551.71 272.621 1551.71 251.741V125.674C1551.71 104.794 1550.3 87.8143 1547.49 74.67C1544.67 61.5585 1540.18 49.7254 1534.05 39.1379C1527.88 28.5831 1518.38 15.5044 1505.53 0H1540.86C1555.06 14.7177 1566.1 31.7299 1573.97 51.0038C1581.87 70.2777 1585.8 95.4518 1585.8 126.493V250.954C1585.8 281.996 1581.84 307.17 1573.97 326.444V326.411Z" fill="white"/>
<path d="M16.3894 407.41V524.987H58.4118V539.312H0V407.41H16.3894Z" fill="#58595B"/>
<path d="M138.195 537.804C136.261 536.788 134.59 535.411 133.213 533.674C130.328 537.443 126.493 539.312 121.708 539.312H104.925C95.3862 539.312 88.4371 537.411 84.1103 533.575C79.7835 529.74 77.6201 523.184 77.6201 513.875V510.106C77.6201 490.635 86.7982 480.9 105.122 480.9H128.493V471.492C128.493 467.592 127.313 464.576 124.92 462.445C122.527 460.315 119.02 459.233 114.365 459.233H85.1592V445.105H112.464C123.379 445.105 131.476 447.498 136.687 452.251C141.899 457.037 144.522 464.674 144.522 475.229V520.464C144.522 522.332 145.243 523.775 146.685 524.692C148.127 525.643 150.553 526.102 153.929 526.102V539.279H143.571C141.932 539.279 140.162 538.787 138.195 537.771V537.804ZM126.985 522.529C128.001 520.759 128.493 518.497 128.493 515.744V495.028H104.925C101.647 495.028 98.9591 496.109 96.8285 498.24C94.6979 500.371 93.6162 503.091 93.6162 506.336V515.744C93.6162 519.022 94.3701 521.382 95.8779 522.889C97.3857 524.397 99.7786 525.151 103.024 525.151H119.806C123.576 525.151 125.969 524.266 126.952 522.529H126.985Z" fill="#58595B"/>
<path d="M229.222 532.166C224.01 536.952 215.947 539.312 204.999 539.312H168.057V407.41H184.086V448.875C187.855 446.351 192.575 445.106 198.213 445.106H204.999C216.045 445.106 224.141 447.466 229.32 452.186C234.467 456.906 237.056 464.576 237.056 475.262V509.188C237.056 519.743 234.434 527.413 229.222 532.166ZM187.101 462.544C185.102 464.74 184.086 467.1 184.086 469.624V525.217H206.9C211.554 525.217 215.062 524.135 217.454 522.005C219.847 519.874 221.027 516.858 221.027 512.958V471.492C221.027 467.592 219.847 464.576 217.454 462.445C215.062 460.315 211.554 459.233 206.9 459.233H196.345C192.215 459.233 189.134 460.348 187.101 462.544Z" fill="#58595B"/>
<path d="M310.612 533.477C305.76 537.378 298.779 539.312 289.6 539.312H261.509V525.184H291.469C294.845 525.184 297.435 524.463 299.205 523.021C300.975 521.578 301.827 519.48 301.827 516.694V506.697C301.827 501.059 299.139 498.207 293.731 498.207H286.749C277.964 498.207 271.375 496.306 267.049 492.471C262.722 488.636 260.558 482.571 260.558 474.278V468.804C260.558 460.38 262.951 454.316 267.704 450.612C272.49 446.908 279.505 445.04 288.814 445.04H314.053V459.167H286.913C283.766 459.167 281.275 459.889 279.374 461.331C277.505 462.773 276.555 464.871 276.555 467.657V474.442C276.555 477.327 277.407 479.458 279.111 480.834C280.816 482.211 282.979 482.899 285.601 482.899H291.993C300.417 482.899 306.809 484.932 311.202 489.029C315.594 493.126 317.79 499.19 317.79 507.221V515.711C317.79 523.611 315.365 529.543 310.546 533.411L310.612 533.477Z" fill="#58595B"/>
</svg>
